%TF.GenerationSoftware,KiCad,Pcbnew,7.0.9*%
%TF.CreationDate,2023-11-29T01:17:11-05:00*%
%TF.ProjectId,Control Tempeture,436f6e74-726f-46c2-9054-656d70657475,rev?*%
%TF.SameCoordinates,Original*%
%TF.FileFunction,Soldermask,Top*%
%TF.FilePolarity,Negative*%
%FSLAX46Y46*%
G04 Gerber Fmt 4.6, Leading zero omitted, Abs format (unit mm)*
G04 Created by KiCad (PCBNEW 7.0.9) date 2023-11-29 01:17:11*
%MOMM*%
%LPD*%
G01*
G04 APERTURE LIST*
G04 Aperture macros list*
%AMRoundRect*
0 Rectangle with rounded corners*
0 $1 Rounding radius*
0 $2 $3 $4 $5 $6 $7 $8 $9 X,Y pos of 4 corners*
0 Add a 4 corners polygon primitive as box body*
4,1,4,$2,$3,$4,$5,$6,$7,$8,$9,$2,$3,0*
0 Add four circle primitives for the rounded corners*
1,1,$1+$1,$2,$3*
1,1,$1+$1,$4,$5*
1,1,$1+$1,$6,$7*
1,1,$1+$1,$8,$9*
0 Add four rect primitives between the rounded corners*
20,1,$1+$1,$2,$3,$4,$5,0*
20,1,$1+$1,$4,$5,$6,$7,0*
20,1,$1+$1,$6,$7,$8,$9,0*
20,1,$1+$1,$8,$9,$2,$3,0*%
G04 Aperture macros list end*
%ADD10R,2.000000X2.000000*%
%ADD11O,2.000000X2.000000*%
%ADD12C,3.000000*%
%ADD13RoundRect,0.102000X-1.000000X-1.000000X1.000000X-1.000000X1.000000X1.000000X-1.000000X1.000000X0*%
%ADD14C,2.204000*%
%ADD15C,3.800000*%
%ADD16C,1.600000*%
%ADD17O,1.600000X1.600000*%
%ADD18RoundRect,0.102000X0.649000X-0.649000X0.649000X0.649000X-0.649000X0.649000X-0.649000X-0.649000X0*%
%ADD19C,1.502000*%
%ADD20RoundRect,0.102000X1.275000X-1.275000X1.275000X1.275000X-1.275000X1.275000X-1.275000X-1.275000X0*%
%ADD21C,2.754000*%
%ADD22R,2.000000X1.500000*%
%ADD23R,2.000000X3.800000*%
%ADD24R,3.500000X3.500000*%
%ADD25RoundRect,0.750000X-0.750000X-1.000000X0.750000X-1.000000X0.750000X1.000000X-0.750000X1.000000X0*%
%ADD26RoundRect,0.875000X-0.875000X-0.875000X0.875000X-0.875000X0.875000X0.875000X-0.875000X0.875000X0*%
G04 APERTURE END LIST*
D10*
%TO.C,C1*%
X98817500Y-61080000D03*
D11*
X98817500Y-76080000D03*
%TD*%
D12*
%TO.C,U1*%
X63705000Y-61800000D03*
X63705000Y-108750000D03*
X88215000Y-61800000D03*
X88215000Y-108750000D03*
D13*
X63285000Y-69760000D03*
D14*
X63285000Y-72300000D03*
X63285000Y-74840000D03*
X63285000Y-77380000D03*
X63285000Y-79920000D03*
X63285000Y-82460000D03*
X63285000Y-85000000D03*
X63285000Y-87540000D03*
X63285000Y-90080000D03*
X63285000Y-92620000D03*
X63285000Y-95160000D03*
X63285000Y-97700000D03*
X63285000Y-100240000D03*
X63285000Y-102780000D03*
X63285000Y-105320000D03*
X88685000Y-105320000D03*
X88685000Y-102780000D03*
X88685000Y-100240000D03*
X88685000Y-97700000D03*
X88685000Y-95160000D03*
X88685000Y-92620000D03*
X88685000Y-90080000D03*
X88685000Y-87540000D03*
X88685000Y-85000000D03*
X88685000Y-82460000D03*
X88685000Y-79920000D03*
X88685000Y-77380000D03*
X88685000Y-74840000D03*
X88685000Y-72300000D03*
X88685000Y-69760000D03*
%TD*%
D15*
%TO.C,H4*%
X147320000Y-101600000D03*
%TD*%
D16*
%TO.C,R4*%
X100330000Y-101600000D03*
D17*
X107950000Y-101600000D03*
%TD*%
D16*
%TO.C,R2*%
X120650000Y-83820000D03*
D17*
X128270000Y-83820000D03*
%TD*%
D15*
%TO.C,H3*%
X147320000Y-109220000D03*
%TD*%
%TO.C,H1*%
X152400000Y-58420000D03*
%TD*%
%TO.C,H2*%
X152400000Y-63770000D03*
%TD*%
D16*
%TO.C,R1*%
X114300000Y-57150000D03*
D17*
X114300000Y-64770000D03*
%TD*%
D18*
%TO.C,Q1*%
X113880000Y-78740000D03*
D19*
X113880000Y-76200000D03*
X113880000Y-73660000D03*
%TD*%
D20*
%TO.C,Q2*%
X137160000Y-71490000D03*
D21*
X137160000Y-66040000D03*
X137160000Y-60590000D03*
%TD*%
D16*
%TO.C,R3*%
X95250000Y-83820000D03*
D17*
X102870000Y-83820000D03*
%TD*%
D22*
%TO.C,U2*%
X101600000Y-50560000D03*
X101600000Y-48260000D03*
D23*
X95300000Y-48260000D03*
D22*
X101600000Y-45960000D03*
%TD*%
D24*
%TO.C,J1*%
X74580000Y-45720000D03*
D25*
X68580000Y-45720000D03*
D26*
X71580000Y-50420000D03*
%TD*%
M02*
