%TF.GenerationSoftware,KiCad,Pcbnew,7.0.9*%
%TF.CreationDate,2023-11-29T01:17:11-05:00*%
%TF.ProjectId,Control Tempeture,436f6e74-726f-46c2-9054-656d70657475,rev?*%
%TF.SameCoordinates,Original*%
%TF.FileFunction,Copper,L2,Bot*%
%TF.FilePolarity,Positive*%
%FSLAX46Y46*%
G04 Gerber Fmt 4.6, Leading zero omitted, Abs format (unit mm)*
G04 Created by KiCad (PCBNEW 7.0.9) date 2023-11-29 01:17:11*
%MOMM*%
%LPD*%
G01*
G04 APERTURE LIST*
G04 Aperture macros list*
%AMRoundRect*
0 Rectangle with rounded corners*
0 $1 Rounding radius*
0 $2 $3 $4 $5 $6 $7 $8 $9 X,Y pos of 4 corners*
0 Add a 4 corners polygon primitive as box body*
4,1,4,$2,$3,$4,$5,$6,$7,$8,$9,$2,$3,0*
0 Add four circle primitives for the rounded corners*
1,1,$1+$1,$2,$3*
1,1,$1+$1,$4,$5*
1,1,$1+$1,$6,$7*
1,1,$1+$1,$8,$9*
0 Add four rect primitives between the rounded corners*
20,1,$1+$1,$2,$3,$4,$5,0*
20,1,$1+$1,$4,$5,$6,$7,0*
20,1,$1+$1,$6,$7,$8,$9,0*
20,1,$1+$1,$8,$9,$2,$3,0*%
G04 Aperture macros list end*
%TA.AperFunction,ComponentPad*%
%ADD10R,2.000000X2.000000*%
%TD*%
%TA.AperFunction,ComponentPad*%
%ADD11O,2.000000X2.000000*%
%TD*%
%TA.AperFunction,ComponentPad*%
%ADD12C,2.000000*%
%TD*%
%TA.AperFunction,ComponentPad*%
%ADD13C,3.800000*%
%TD*%
%TA.AperFunction,ComponentPad*%
%ADD14C,1.600000*%
%TD*%
%TA.AperFunction,ComponentPad*%
%ADD15O,1.600000X1.600000*%
%TD*%
%TA.AperFunction,ComponentPad*%
%ADD16R,1.298000X1.298000*%
%TD*%
%TA.AperFunction,ComponentPad*%
%ADD17C,1.298000*%
%TD*%
%TA.AperFunction,ComponentPad*%
%ADD18R,2.550000X2.550000*%
%TD*%
%TA.AperFunction,ComponentPad*%
%ADD19C,2.550000*%
%TD*%
%TA.AperFunction,ComponentPad*%
%ADD20R,3.500000X3.500000*%
%TD*%
%TA.AperFunction,ComponentPad*%
%ADD21RoundRect,0.750000X-0.750000X-1.000000X0.750000X-1.000000X0.750000X1.000000X-0.750000X1.000000X0*%
%TD*%
%TA.AperFunction,ComponentPad*%
%ADD22RoundRect,0.875000X-0.875000X-0.875000X0.875000X-0.875000X0.875000X0.875000X-0.875000X0.875000X0*%
%TD*%
G04 APERTURE END LIST*
D10*
%TO.P,C1,1*%
%TO.N,Net-(U1-VIN)*%
X98817500Y-61080000D03*
D11*
%TO.P,C1,2*%
%TO.N,GND*%
X98817500Y-76080000D03*
%TD*%
D10*
%TO.P,U1,1,3V3*%
%TO.N,Net-(U1-3V3)*%
X63285000Y-69760000D03*
D12*
%TO.P,U1,2,GND*%
%TO.N,GND*%
X63285000Y-72300000D03*
%TO.P,U1,3,D15*%
%TO.N,unconnected-(U1-D15-Pad3)*%
X63285000Y-74840000D03*
%TO.P,U1,4,D2*%
%TO.N,unconnected-(U1-D2-Pad4)*%
X63285000Y-77380000D03*
%TO.P,U1,5,D4*%
%TO.N,unconnected-(U1-D4-Pad5)*%
X63285000Y-79920000D03*
%TO.P,U1,6,RX2*%
%TO.N,unconnected-(U1-RX2-Pad6)*%
X63285000Y-82460000D03*
%TO.P,U1,7,TX2*%
%TO.N,unconnected-(U1-TX2-Pad7)*%
X63285000Y-85000000D03*
%TO.P,U1,8,D5*%
%TO.N,unconnected-(U1-D5-Pad8)*%
X63285000Y-87540000D03*
%TO.P,U1,9,D18*%
%TO.N,unconnected-(U1-D18-Pad9)*%
X63285000Y-90080000D03*
%TO.P,U1,10,D19*%
%TO.N,unconnected-(U1-D19-Pad10)*%
X63285000Y-92620000D03*
%TO.P,U1,11,D21*%
%TO.N,unconnected-(U1-D21-Pad11)*%
X63285000Y-95160000D03*
%TO.P,U1,12,RX0*%
%TO.N,unconnected-(U1-RX0-Pad12)*%
X63285000Y-97700000D03*
%TO.P,U1,13,TX0*%
%TO.N,unconnected-(U1-TX0-Pad13)*%
X63285000Y-100240000D03*
%TO.P,U1,14,D22*%
%TO.N,unconnected-(U1-D22-Pad14)*%
X63285000Y-102780000D03*
%TO.P,U1,15,D23*%
%TO.N,unconnected-(U1-D23-Pad15)*%
X63285000Y-105320000D03*
%TO.P,U1,16,EN*%
%TO.N,unconnected-(U1-EN-Pad16)*%
X88685000Y-105320000D03*
%TO.P,U1,17,VP*%
%TO.N,unconnected-(U1-VP-Pad17)*%
X88685000Y-102780000D03*
%TO.P,U1,18,VN*%
%TO.N,unconnected-(U1-VN-Pad18)*%
X88685000Y-100240000D03*
%TO.P,U1,19,D34*%
%TO.N,unconnected-(U1-D34-Pad19)*%
X88685000Y-97700000D03*
%TO.P,U1,20,D35*%
%TO.N,unconnected-(U1-D35-Pad20)*%
X88685000Y-95160000D03*
%TO.P,U1,21,D32*%
%TO.N,unconnected-(U1-D32-Pad21)*%
X88685000Y-92620000D03*
%TO.P,U1,22,D33*%
%TO.N,unconnected-(U1-D33-Pad22)*%
X88685000Y-90080000D03*
%TO.P,U1,23,D25*%
%TO.N,Net-(U1-D25)*%
X88685000Y-87540000D03*
%TO.P,U1,24,D26*%
%TO.N,Hot*%
X88685000Y-85000000D03*
%TO.P,U1,25,D27*%
%TO.N,unconnected-(U1-D27-Pad25)*%
X88685000Y-82460000D03*
%TO.P,U1,26,D14*%
%TO.N,unconnected-(U1-D14-Pad26)*%
X88685000Y-79920000D03*
%TO.P,U1,27,D12*%
%TO.N,unconnected-(U1-D12-Pad27)*%
X88685000Y-77380000D03*
%TO.P,U1,28,D13*%
%TO.N,unconnected-(U1-D13-Pad28)*%
X88685000Y-74840000D03*
%TO.P,U1,29,GND*%
%TO.N,GND*%
X88685000Y-72300000D03*
%TO.P,U1,30,VIN*%
%TO.N,Net-(U1-VIN)*%
X88685000Y-69760000D03*
%TD*%
D13*
%TO.P,H4,1,1*%
%TO.N,Net-(U1-D25)*%
X147320000Y-101600000D03*
%TD*%
D14*
%TO.P,R4,1*%
%TO.N,Net-(U1-3V3)*%
X100330000Y-101600000D03*
D15*
%TO.P,R4,2*%
%TO.N,Net-(U1-D25)*%
X107950000Y-101600000D03*
%TD*%
D14*
%TO.P,R2,1*%
%TO.N,Net-(Q1-Pad3)*%
X120650000Y-83820000D03*
D15*
%TO.P,R2,2*%
%TO.N,Net-(Q2-Pad1)*%
X128270000Y-83820000D03*
%TD*%
D13*
%TO.P,H3,1,1*%
%TO.N,GND*%
X147320000Y-109220000D03*
%TD*%
%TO.P,H1,1,1*%
%TO.N,Net-(H1-Pad1)*%
X152400000Y-58420000D03*
%TD*%
%TO.P,H2,1,1*%
%TO.N,GND*%
X152400000Y-63770000D03*
%TD*%
D14*
%TO.P,R1,1*%
%TO.N,Net-(U2-VI)*%
X114300000Y-57150000D03*
D15*
%TO.P,R1,2*%
%TO.N,Net-(Q1-Pad3)*%
X114300000Y-64770000D03*
%TD*%
D16*
%TO.P,Q1,1*%
%TO.N,GND*%
X113880000Y-78740000D03*
D17*
%TO.P,Q1,2*%
%TO.N,Net-(Q1-Pad2)*%
X113880000Y-76200000D03*
%TO.P,Q1,3*%
%TO.N,Net-(Q1-Pad3)*%
X113880000Y-73660000D03*
%TD*%
D18*
%TO.P,Q2,1*%
%TO.N,Net-(Q2-Pad1)*%
X137160000Y-71490000D03*
D19*
%TO.P,Q2,2*%
%TO.N,Net-(U2-VI)*%
X137160000Y-66040000D03*
%TO.P,Q2,3*%
%TO.N,Net-(H1-Pad1)*%
X137160000Y-60590000D03*
%TD*%
D14*
%TO.P,R3,1*%
%TO.N,Hot*%
X95250000Y-83820000D03*
D15*
%TO.P,R3,2*%
%TO.N,Net-(Q1-Pad2)*%
X102870000Y-83820000D03*
%TD*%
D20*
%TO.P,J1,1*%
%TO.N,Net-(U2-VI)*%
X74580000Y-45720000D03*
D21*
%TO.P,J1,2*%
%TO.N,GND*%
X68580000Y-45720000D03*
D22*
%TO.P,J1,3*%
X71580000Y-50420000D03*
%TD*%
M02*
