%TF.GenerationSoftware,KiCad,Pcbnew,7.0.9*%
%TF.CreationDate,2023-11-29T01:17:11-05:00*%
%TF.ProjectId,Control Tempeture,436f6e74-726f-46c2-9054-656d70657475,rev?*%
%TF.SameCoordinates,Original*%
%TF.FileFunction,Legend,Top*%
%TF.FilePolarity,Positive*%
%FSLAX46Y46*%
G04 Gerber Fmt 4.6, Leading zero omitted, Abs format (unit mm)*
G04 Created by KiCad (PCBNEW 7.0.9) date 2023-11-29 01:17:11*
%MOMM*%
%LPD*%
G01*
G04 APERTURE LIST*
%ADD10C,0.150000*%
%ADD11C,0.120000*%
%ADD12C,0.127000*%
%ADD13C,0.200000*%
G04 APERTURE END LIST*
D10*
X102547080Y-68746666D02*
X102594700Y-68794285D01*
X102594700Y-68794285D02*
X102642319Y-68937142D01*
X102642319Y-68937142D02*
X102642319Y-69032380D01*
X102642319Y-69032380D02*
X102594700Y-69175237D01*
X102594700Y-69175237D02*
X102499461Y-69270475D01*
X102499461Y-69270475D02*
X102404223Y-69318094D01*
X102404223Y-69318094D02*
X102213747Y-69365713D01*
X102213747Y-69365713D02*
X102070890Y-69365713D01*
X102070890Y-69365713D02*
X101880414Y-69318094D01*
X101880414Y-69318094D02*
X101785176Y-69270475D01*
X101785176Y-69270475D02*
X101689938Y-69175237D01*
X101689938Y-69175237D02*
X101642319Y-69032380D01*
X101642319Y-69032380D02*
X101642319Y-68937142D01*
X101642319Y-68937142D02*
X101689938Y-68794285D01*
X101689938Y-68794285D02*
X101737557Y-68746666D01*
X102642319Y-67794285D02*
X102642319Y-68365713D01*
X102642319Y-68079999D02*
X101642319Y-68079999D01*
X101642319Y-68079999D02*
X101785176Y-68175237D01*
X101785176Y-68175237D02*
X101880414Y-68270475D01*
X101880414Y-68270475D02*
X101928033Y-68365713D01*
X63868095Y-57369819D02*
X63868095Y-58179342D01*
X63868095Y-58179342D02*
X63915714Y-58274580D01*
X63915714Y-58274580D02*
X63963333Y-58322200D01*
X63963333Y-58322200D02*
X64058571Y-58369819D01*
X64058571Y-58369819D02*
X64249047Y-58369819D01*
X64249047Y-58369819D02*
X64344285Y-58322200D01*
X64344285Y-58322200D02*
X64391904Y-58274580D01*
X64391904Y-58274580D02*
X64439523Y-58179342D01*
X64439523Y-58179342D02*
X64439523Y-57369819D01*
X65439523Y-58369819D02*
X64868095Y-58369819D01*
X65153809Y-58369819D02*
X65153809Y-57369819D01*
X65153809Y-57369819D02*
X65058571Y-57512676D01*
X65058571Y-57512676D02*
X64963333Y-57607914D01*
X64963333Y-57607914D02*
X64868095Y-57655533D01*
X146558095Y-99154819D02*
X146558095Y-98154819D01*
X146558095Y-98631009D02*
X147129523Y-98631009D01*
X147129523Y-99154819D02*
X147129523Y-98154819D01*
X148034285Y-98488152D02*
X148034285Y-99154819D01*
X147796190Y-98107200D02*
X147558095Y-98821485D01*
X147558095Y-98821485D02*
X148177142Y-98821485D01*
X103973333Y-99684819D02*
X103640000Y-99208628D01*
X103401905Y-99684819D02*
X103401905Y-98684819D01*
X103401905Y-98684819D02*
X103782857Y-98684819D01*
X103782857Y-98684819D02*
X103878095Y-98732438D01*
X103878095Y-98732438D02*
X103925714Y-98780057D01*
X103925714Y-98780057D02*
X103973333Y-98875295D01*
X103973333Y-98875295D02*
X103973333Y-99018152D01*
X103973333Y-99018152D02*
X103925714Y-99113390D01*
X103925714Y-99113390D02*
X103878095Y-99161009D01*
X103878095Y-99161009D02*
X103782857Y-99208628D01*
X103782857Y-99208628D02*
X103401905Y-99208628D01*
X104830476Y-99018152D02*
X104830476Y-99684819D01*
X104592381Y-98637200D02*
X104354286Y-99351485D01*
X104354286Y-99351485D02*
X104973333Y-99351485D01*
X124293333Y-81904819D02*
X123960000Y-81428628D01*
X123721905Y-81904819D02*
X123721905Y-80904819D01*
X123721905Y-80904819D02*
X124102857Y-80904819D01*
X124102857Y-80904819D02*
X124198095Y-80952438D01*
X124198095Y-80952438D02*
X124245714Y-81000057D01*
X124245714Y-81000057D02*
X124293333Y-81095295D01*
X124293333Y-81095295D02*
X124293333Y-81238152D01*
X124293333Y-81238152D02*
X124245714Y-81333390D01*
X124245714Y-81333390D02*
X124198095Y-81381009D01*
X124198095Y-81381009D02*
X124102857Y-81428628D01*
X124102857Y-81428628D02*
X123721905Y-81428628D01*
X124674286Y-81000057D02*
X124721905Y-80952438D01*
X124721905Y-80952438D02*
X124817143Y-80904819D01*
X124817143Y-80904819D02*
X125055238Y-80904819D01*
X125055238Y-80904819D02*
X125150476Y-80952438D01*
X125150476Y-80952438D02*
X125198095Y-81000057D01*
X125198095Y-81000057D02*
X125245714Y-81095295D01*
X125245714Y-81095295D02*
X125245714Y-81190533D01*
X125245714Y-81190533D02*
X125198095Y-81333390D01*
X125198095Y-81333390D02*
X124626667Y-81904819D01*
X124626667Y-81904819D02*
X125245714Y-81904819D01*
X146558095Y-106774819D02*
X146558095Y-105774819D01*
X146558095Y-106251009D02*
X147129523Y-106251009D01*
X147129523Y-106774819D02*
X147129523Y-105774819D01*
X147510476Y-105774819D02*
X148129523Y-105774819D01*
X148129523Y-105774819D02*
X147796190Y-106155771D01*
X147796190Y-106155771D02*
X147939047Y-106155771D01*
X147939047Y-106155771D02*
X148034285Y-106203390D01*
X148034285Y-106203390D02*
X148081904Y-106251009D01*
X148081904Y-106251009D02*
X148129523Y-106346247D01*
X148129523Y-106346247D02*
X148129523Y-106584342D01*
X148129523Y-106584342D02*
X148081904Y-106679580D01*
X148081904Y-106679580D02*
X148034285Y-106727200D01*
X148034285Y-106727200D02*
X147939047Y-106774819D01*
X147939047Y-106774819D02*
X147653333Y-106774819D01*
X147653333Y-106774819D02*
X147558095Y-106727200D01*
X147558095Y-106727200D02*
X147510476Y-106679580D01*
X151638095Y-55974819D02*
X151638095Y-54974819D01*
X151638095Y-55451009D02*
X152209523Y-55451009D01*
X152209523Y-55974819D02*
X152209523Y-54974819D01*
X153209523Y-55974819D02*
X152638095Y-55974819D01*
X152923809Y-55974819D02*
X152923809Y-54974819D01*
X152923809Y-54974819D02*
X152828571Y-55117676D01*
X152828571Y-55117676D02*
X152733333Y-55212914D01*
X152733333Y-55212914D02*
X152638095Y-55260533D01*
X146558095Y-63954819D02*
X146558095Y-62954819D01*
X146558095Y-63431009D02*
X147129523Y-63431009D01*
X147129523Y-63954819D02*
X147129523Y-62954819D01*
X147558095Y-63050057D02*
X147605714Y-63002438D01*
X147605714Y-63002438D02*
X147700952Y-62954819D01*
X147700952Y-62954819D02*
X147939047Y-62954819D01*
X147939047Y-62954819D02*
X148034285Y-63002438D01*
X148034285Y-63002438D02*
X148081904Y-63050057D01*
X148081904Y-63050057D02*
X148129523Y-63145295D01*
X148129523Y-63145295D02*
X148129523Y-63240533D01*
X148129523Y-63240533D02*
X148081904Y-63383390D01*
X148081904Y-63383390D02*
X147510476Y-63954819D01*
X147510476Y-63954819D02*
X148129523Y-63954819D01*
X117124819Y-61126666D02*
X116648628Y-61459999D01*
X117124819Y-61698094D02*
X116124819Y-61698094D01*
X116124819Y-61698094D02*
X116124819Y-61317142D01*
X116124819Y-61317142D02*
X116172438Y-61221904D01*
X116172438Y-61221904D02*
X116220057Y-61174285D01*
X116220057Y-61174285D02*
X116315295Y-61126666D01*
X116315295Y-61126666D02*
X116458152Y-61126666D01*
X116458152Y-61126666D02*
X116553390Y-61174285D01*
X116553390Y-61174285D02*
X116601009Y-61221904D01*
X116601009Y-61221904D02*
X116648628Y-61317142D01*
X116648628Y-61317142D02*
X116648628Y-61698094D01*
X117124819Y-60174285D02*
X117124819Y-60745713D01*
X117124819Y-60459999D02*
X116124819Y-60459999D01*
X116124819Y-60459999D02*
X116267676Y-60555237D01*
X116267676Y-60555237D02*
X116362914Y-60650475D01*
X116362914Y-60650475D02*
X116410533Y-60745713D01*
X117390057Y-73755238D02*
X117342438Y-73850476D01*
X117342438Y-73850476D02*
X117247200Y-73945714D01*
X117247200Y-73945714D02*
X117104342Y-74088571D01*
X117104342Y-74088571D02*
X117056723Y-74183809D01*
X117056723Y-74183809D02*
X117056723Y-74279047D01*
X117294819Y-74231428D02*
X117247200Y-74326666D01*
X117247200Y-74326666D02*
X117151961Y-74421904D01*
X117151961Y-74421904D02*
X116961485Y-74469523D01*
X116961485Y-74469523D02*
X116628152Y-74469523D01*
X116628152Y-74469523D02*
X116437676Y-74421904D01*
X116437676Y-74421904D02*
X116342438Y-74326666D01*
X116342438Y-74326666D02*
X116294819Y-74231428D01*
X116294819Y-74231428D02*
X116294819Y-74040952D01*
X116294819Y-74040952D02*
X116342438Y-73945714D01*
X116342438Y-73945714D02*
X116437676Y-73850476D01*
X116437676Y-73850476D02*
X116628152Y-73802857D01*
X116628152Y-73802857D02*
X116961485Y-73802857D01*
X116961485Y-73802857D02*
X117151961Y-73850476D01*
X117151961Y-73850476D02*
X117247200Y-73945714D01*
X117247200Y-73945714D02*
X117294819Y-74040952D01*
X117294819Y-74040952D02*
X117294819Y-74231428D01*
X117294819Y-72850476D02*
X117294819Y-73421904D01*
X117294819Y-73136190D02*
X116294819Y-73136190D01*
X116294819Y-73136190D02*
X116437676Y-73231428D01*
X116437676Y-73231428D02*
X116532914Y-73326666D01*
X116532914Y-73326666D02*
X116580533Y-73421904D01*
X133639909Y-72279311D02*
X133573161Y-72412807D01*
X133573161Y-72412807D02*
X133439665Y-72546303D01*
X133439665Y-72546303D02*
X133239420Y-72746547D01*
X133239420Y-72746547D02*
X133172672Y-72880043D01*
X133172672Y-72880043D02*
X133172672Y-73013539D01*
X133506413Y-72946791D02*
X133439665Y-73080287D01*
X133439665Y-73080287D02*
X133306168Y-73213783D01*
X133306168Y-73213783D02*
X133039176Y-73280531D01*
X133039176Y-73280531D02*
X132571940Y-73280531D01*
X132571940Y-73280531D02*
X132304948Y-73213783D01*
X132304948Y-73213783D02*
X132171452Y-73080287D01*
X132171452Y-73080287D02*
X132104704Y-72946791D01*
X132104704Y-72946791D02*
X132104704Y-72679799D01*
X132104704Y-72679799D02*
X132171452Y-72546303D01*
X132171452Y-72546303D02*
X132304948Y-72412807D01*
X132304948Y-72412807D02*
X132571940Y-72346059D01*
X132571940Y-72346059D02*
X133039176Y-72346059D01*
X133039176Y-72346059D02*
X133306168Y-72412807D01*
X133306168Y-72412807D02*
X133439665Y-72546303D01*
X133439665Y-72546303D02*
X133506413Y-72679799D01*
X133506413Y-72679799D02*
X133506413Y-72946791D01*
X132238200Y-71812074D02*
X132171452Y-71745326D01*
X132171452Y-71745326D02*
X132104704Y-71611830D01*
X132104704Y-71611830D02*
X132104704Y-71278090D01*
X132104704Y-71278090D02*
X132171452Y-71144594D01*
X132171452Y-71144594D02*
X132238200Y-71077846D01*
X132238200Y-71077846D02*
X132371696Y-71011098D01*
X132371696Y-71011098D02*
X132505192Y-71011098D01*
X132505192Y-71011098D02*
X132705436Y-71077846D01*
X132705436Y-71077846D02*
X133506413Y-71878822D01*
X133506413Y-71878822D02*
X133506413Y-71011098D01*
X96353333Y-81734819D02*
X96020000Y-81258628D01*
X95781905Y-81734819D02*
X95781905Y-80734819D01*
X95781905Y-80734819D02*
X96162857Y-80734819D01*
X96162857Y-80734819D02*
X96258095Y-80782438D01*
X96258095Y-80782438D02*
X96305714Y-80830057D01*
X96305714Y-80830057D02*
X96353333Y-80925295D01*
X96353333Y-80925295D02*
X96353333Y-81068152D01*
X96353333Y-81068152D02*
X96305714Y-81163390D01*
X96305714Y-81163390D02*
X96258095Y-81211009D01*
X96258095Y-81211009D02*
X96162857Y-81258628D01*
X96162857Y-81258628D02*
X95781905Y-81258628D01*
X96686667Y-80734819D02*
X97305714Y-80734819D01*
X97305714Y-80734819D02*
X96972381Y-81115771D01*
X96972381Y-81115771D02*
X97115238Y-81115771D01*
X97115238Y-81115771D02*
X97210476Y-81163390D01*
X97210476Y-81163390D02*
X97258095Y-81211009D01*
X97258095Y-81211009D02*
X97305714Y-81306247D01*
X97305714Y-81306247D02*
X97305714Y-81544342D01*
X97305714Y-81544342D02*
X97258095Y-81639580D01*
X97258095Y-81639580D02*
X97210476Y-81687200D01*
X97210476Y-81687200D02*
X97115238Y-81734819D01*
X97115238Y-81734819D02*
X96829524Y-81734819D01*
X96829524Y-81734819D02*
X96734286Y-81687200D01*
X96734286Y-81687200D02*
X96686667Y-81639580D01*
X97078095Y-52794819D02*
X97078095Y-53604342D01*
X97078095Y-53604342D02*
X97125714Y-53699580D01*
X97125714Y-53699580D02*
X97173333Y-53747200D01*
X97173333Y-53747200D02*
X97268571Y-53794819D01*
X97268571Y-53794819D02*
X97459047Y-53794819D01*
X97459047Y-53794819D02*
X97554285Y-53747200D01*
X97554285Y-53747200D02*
X97601904Y-53699580D01*
X97601904Y-53699580D02*
X97649523Y-53604342D01*
X97649523Y-53604342D02*
X97649523Y-52794819D01*
X98078095Y-52890057D02*
X98125714Y-52842438D01*
X98125714Y-52842438D02*
X98220952Y-52794819D01*
X98220952Y-52794819D02*
X98459047Y-52794819D01*
X98459047Y-52794819D02*
X98554285Y-52842438D01*
X98554285Y-52842438D02*
X98601904Y-52890057D01*
X98601904Y-52890057D02*
X98649523Y-52985295D01*
X98649523Y-52985295D02*
X98649523Y-53080533D01*
X98649523Y-53080533D02*
X98601904Y-53223390D01*
X98601904Y-53223390D02*
X98030476Y-53794819D01*
X98030476Y-53794819D02*
X98649523Y-53794819D01*
X70786666Y-37554819D02*
X70786666Y-38269104D01*
X70786666Y-38269104D02*
X70739047Y-38411961D01*
X70739047Y-38411961D02*
X70643809Y-38507200D01*
X70643809Y-38507200D02*
X70500952Y-38554819D01*
X70500952Y-38554819D02*
X70405714Y-38554819D01*
X71786666Y-38554819D02*
X71215238Y-38554819D01*
X71500952Y-38554819D02*
X71500952Y-37554819D01*
X71500952Y-37554819D02*
X71405714Y-37697676D01*
X71405714Y-37697676D02*
X71310476Y-37792914D01*
X71310476Y-37792914D02*
X71215238Y-37840533D01*
D11*
%TO.C,C1*%
X101017500Y-61710000D02*
X101017500Y-63210000D01*
X98817500Y-62320000D02*
X98817500Y-63460000D01*
X101767500Y-62460000D02*
X100267500Y-62460000D01*
X101187500Y-63460000D02*
X96447500Y-63460000D01*
X101187500Y-63460000D02*
X101187500Y-64960000D01*
X96447500Y-63460000D02*
X96447500Y-64960000D01*
X101187500Y-64960000D02*
X100437500Y-65710000D01*
X96447500Y-64960000D02*
X97197500Y-65710000D01*
X100437500Y-65710000D02*
X101187500Y-66460000D01*
X97197500Y-65710000D02*
X96447500Y-66460000D01*
X101187500Y-66460000D02*
X101187500Y-73700000D01*
X96447500Y-66460000D02*
X96447500Y-73700000D01*
X101187500Y-73700000D02*
X96447500Y-73700000D01*
X98817500Y-74840000D02*
X98817500Y-73700000D01*
D12*
%TO.C,U1*%
X61705000Y-59800000D02*
X72774000Y-59800000D01*
X61705000Y-59800000D02*
X90215000Y-59800000D01*
X61705000Y-110750000D02*
X61705000Y-59800000D01*
X61705000Y-110750000D02*
X61705000Y-59800000D01*
X61705000Y-110750000D02*
X67075000Y-110750000D01*
X67075000Y-110750000D02*
X84765000Y-110750000D01*
X72774000Y-59800000D02*
X79485000Y-59800000D01*
X79485000Y-59800000D02*
X90215000Y-59800000D01*
X84765000Y-110750000D02*
X90215000Y-110750000D01*
X90215000Y-59800000D02*
X90215000Y-110750000D01*
X90215000Y-59800000D02*
X90215000Y-110750000D01*
X90215000Y-110750000D02*
X61705000Y-110750000D01*
D13*
X61235000Y-69760000D02*
G75*
G03*
X61235000Y-69760000I-100000J0D01*
G01*
D11*
%TO.C,R4*%
X100870000Y-100230000D02*
X107410000Y-100230000D01*
X100870000Y-100560000D02*
X100870000Y-100230000D01*
X100870000Y-102640000D02*
X100870000Y-102970000D01*
X100870000Y-102970000D02*
X107410000Y-102970000D01*
X107410000Y-100230000D02*
X107410000Y-100560000D01*
X107410000Y-102970000D02*
X107410000Y-102640000D01*
%TO.C,R2*%
X121190000Y-82450000D02*
X127730000Y-82450000D01*
X121190000Y-82780000D02*
X121190000Y-82450000D01*
X121190000Y-84860000D02*
X121190000Y-85190000D01*
X121190000Y-85190000D02*
X127730000Y-85190000D01*
X127730000Y-82450000D02*
X127730000Y-82780000D01*
X127730000Y-85190000D02*
X127730000Y-84860000D01*
%TO.C,R1*%
X115670000Y-57690000D02*
X115670000Y-64230000D01*
X115340000Y-57690000D02*
X115670000Y-57690000D01*
X113260000Y-57690000D02*
X112930000Y-57690000D01*
X112930000Y-57690000D02*
X112930000Y-64230000D01*
X115670000Y-64230000D02*
X115340000Y-64230000D01*
X112930000Y-64230000D02*
X113260000Y-64230000D01*
D12*
%TO.C,Q1*%
X115150000Y-78500000D02*
X115150000Y-73900000D01*
X111550000Y-76200000D02*
G75*
G03*
X112950000Y-78400000I2605258J112437D01*
G01*
X112950000Y-74000000D02*
G75*
G03*
X111550000Y-76200000I1205258J-2312437D01*
G01*
D13*
X113980000Y-80389000D02*
G75*
G03*
X113980000Y-80389000I-100000J0D01*
G01*
D12*
%TO.C,Q2*%
X134360000Y-76290000D02*
X134360000Y-55790000D01*
X139560000Y-76290000D02*
X134360000Y-76290000D01*
X134360000Y-55790000D02*
X139560000Y-55790000D01*
X139560000Y-55790000D02*
X139560000Y-76290000D01*
D13*
X137160000Y-76890000D02*
G75*
G03*
X137160000Y-76890000I-100000J0D01*
G01*
D11*
%TO.C,R3*%
X95790000Y-82450000D02*
X102330000Y-82450000D01*
X95790000Y-82780000D02*
X95790000Y-82450000D01*
X95790000Y-84860000D02*
X95790000Y-85190000D01*
X95790000Y-85190000D02*
X102330000Y-85190000D01*
X102330000Y-82450000D02*
X102330000Y-82780000D01*
X102330000Y-85190000D02*
X102330000Y-84860000D01*
%TO.C,U2*%
X102550000Y-51670000D02*
X96540000Y-51670000D01*
X100300000Y-44850000D02*
X96540000Y-44850000D01*
X96540000Y-51670000D02*
X96540000Y-50410000D01*
X96540000Y-44850000D02*
X96540000Y-46110000D01*
%TO.C,J1*%
X60780000Y-41120000D02*
X75480000Y-41120000D01*
X60780000Y-50320000D02*
X60780000Y-41120000D01*
X69580000Y-50320000D02*
X60780000Y-50320000D01*
X74630000Y-40920000D02*
X75680000Y-40920000D01*
X75480000Y-41120000D02*
X75480000Y-43720000D01*
X75480000Y-47620000D02*
X75480000Y-50320000D01*
X75480000Y-50320000D02*
X73580000Y-50320000D01*
X75680000Y-41970000D02*
X75680000Y-40920000D01*
%TD*%
M02*
