M48
; DRILL file {KiCad 7.0.9} date Wed Nov 29 01:17:25 2023
; FORMAT={-:-/ absolute / inch / decimal}
; #@! TF.CreationDate,2023-11-29T01:17:25-05:00
; #@! TF.GenerationSoftware,Kicad,Pcbnew,7.0.9
; #@! TF.FileFunction,Plated,1,2,PTH
FMAT,2
INCH
; #@! TA.AperFunction,Plated,PTH,ComponentDrill
T1C0.0311
; #@! TA.AperFunction,Plated,PTH,ComponentDrill
T2C0.0315
; #@! TA.AperFunction,Plated,PTH,ComponentDrill
T3C0.0394
; #@! TA.AperFunction,Plated,PTH,ComponentDrill
T4C0.0402
; #@! TA.AperFunction,Plated,PTH,ComponentDrill
T5C0.0669
; #@! TA.AperFunction,Plated,PTH,ComponentDrill
T6C0.0866
%
G90
G05
T1
X4.4835Y-2.9
X4.4835Y-3.0
X4.4835Y-3.1
T2
X3.75Y-3.3
X3.95Y-4.0
X4.05Y-3.3
X4.25Y-4.0
X4.5Y-2.25
X4.5Y-2.55
X4.75Y-3.3
X5.05Y-3.3
T3
X3.8905Y-2.4047
X3.8905Y-2.9953
T4
X2.4915Y-2.7465
X2.4915Y-2.8465
X2.4915Y-2.9465
X2.4915Y-3.0465
X2.4915Y-3.1465
X2.4915Y-3.2465
X2.4915Y-3.3465
X2.4915Y-3.4465
X2.4915Y-3.5465
X2.4915Y-3.6465
X2.4915Y-3.7465
X2.4915Y-3.8465
X2.4915Y-3.9465
X2.4915Y-4.0465
X2.4915Y-4.1465
X3.4915Y-2.7465
X3.4915Y-2.8465
X3.4915Y-2.9465
X3.4915Y-3.0465
X3.4915Y-3.1465
X3.4915Y-3.2465
X3.4915Y-3.3465
X3.4915Y-3.4465
X3.4915Y-3.5465
X3.4915Y-3.6465
X3.4915Y-3.7465
X3.4915Y-3.8465
X3.4915Y-3.9465
X3.4915Y-4.0465
X3.4915Y-4.1465
T5
X5.4Y-2.3854
X5.4Y-2.6
X5.4Y-2.8146
T6
X5.8Y-4.0
X5.8Y-4.3
X6.0Y-2.3
X6.0Y-2.5106
T3
G00X2.7Y-1.7606
M15
G01X2.7Y-1.8394
M16
G05
G00X2.7787Y-1.985
M15
G01X2.8575Y-1.985
M16
G05
G00X2.9362Y-1.7606
M15
G01X2.9362Y-1.8394
M16
G05
T0
M30
