%TF.GenerationSoftware,KiCad,Pcbnew,7.0.9*%
%TF.CreationDate,2023-11-29T01:17:11-05:00*%
%TF.ProjectId,Control Tempeture,436f6e74-726f-46c2-9054-656d70657475,rev?*%
%TF.SameCoordinates,Original*%
%TF.FileFunction,Copper,L1,Top*%
%TF.FilePolarity,Positive*%
%FSLAX46Y46*%
G04 Gerber Fmt 4.6, Leading zero omitted, Abs format (unit mm)*
G04 Created by KiCad (PCBNEW 7.0.9) date 2023-11-29 01:17:11*
%MOMM*%
%LPD*%
G01*
G04 APERTURE LIST*
G04 Aperture macros list*
%AMRoundRect*
0 Rectangle with rounded corners*
0 $1 Rounding radius*
0 $2 $3 $4 $5 $6 $7 $8 $9 X,Y pos of 4 corners*
0 Add a 4 corners polygon primitive as box body*
4,1,4,$2,$3,$4,$5,$6,$7,$8,$9,$2,$3,0*
0 Add four circle primitives for the rounded corners*
1,1,$1+$1,$2,$3*
1,1,$1+$1,$4,$5*
1,1,$1+$1,$6,$7*
1,1,$1+$1,$8,$9*
0 Add four rect primitives between the rounded corners*
20,1,$1+$1,$2,$3,$4,$5,0*
20,1,$1+$1,$4,$5,$6,$7,0*
20,1,$1+$1,$6,$7,$8,$9,0*
20,1,$1+$1,$8,$9,$2,$3,0*%
G04 Aperture macros list end*
%TA.AperFunction,ComponentPad*%
%ADD10R,2.000000X2.000000*%
%TD*%
%TA.AperFunction,ComponentPad*%
%ADD11O,2.000000X2.000000*%
%TD*%
%TA.AperFunction,ComponentPad*%
%ADD12C,2.000000*%
%TD*%
%TA.AperFunction,ComponentPad*%
%ADD13C,3.800000*%
%TD*%
%TA.AperFunction,ComponentPad*%
%ADD14C,1.600000*%
%TD*%
%TA.AperFunction,ComponentPad*%
%ADD15O,1.600000X1.600000*%
%TD*%
%TA.AperFunction,ComponentPad*%
%ADD16R,1.298000X1.298000*%
%TD*%
%TA.AperFunction,ComponentPad*%
%ADD17C,1.298000*%
%TD*%
%TA.AperFunction,ComponentPad*%
%ADD18R,2.550000X2.550000*%
%TD*%
%TA.AperFunction,ComponentPad*%
%ADD19C,2.550000*%
%TD*%
%TA.AperFunction,SMDPad,CuDef*%
%ADD20R,2.000000X1.500000*%
%TD*%
%TA.AperFunction,SMDPad,CuDef*%
%ADD21R,2.000000X3.800000*%
%TD*%
%TA.AperFunction,ComponentPad*%
%ADD22R,3.500000X3.500000*%
%TD*%
%TA.AperFunction,ComponentPad*%
%ADD23RoundRect,0.750000X-0.750000X-1.000000X0.750000X-1.000000X0.750000X1.000000X-0.750000X1.000000X0*%
%TD*%
%TA.AperFunction,ComponentPad*%
%ADD24RoundRect,0.875000X-0.875000X-0.875000X0.875000X-0.875000X0.875000X0.875000X-0.875000X0.875000X0*%
%TD*%
%TA.AperFunction,Conductor*%
%ADD25C,0.900000*%
%TD*%
%TA.AperFunction,Conductor*%
%ADD26C,1.300000*%
%TD*%
%TA.AperFunction,Conductor*%
%ADD27C,0.889000*%
%TD*%
G04 APERTURE END LIST*
D10*
%TO.P,C1,1*%
%TO.N,Net-(U1-VIN)*%
X98817500Y-61080000D03*
D11*
%TO.P,C1,2*%
%TO.N,GND*%
X98817500Y-76080000D03*
%TD*%
D10*
%TO.P,U1,1,3V3*%
%TO.N,Net-(U1-3V3)*%
X63285000Y-69760000D03*
D12*
%TO.P,U1,2,GND*%
%TO.N,GND*%
X63285000Y-72300000D03*
%TO.P,U1,3,D15*%
%TO.N,unconnected-(U1-D15-Pad3)*%
X63285000Y-74840000D03*
%TO.P,U1,4,D2*%
%TO.N,unconnected-(U1-D2-Pad4)*%
X63285000Y-77380000D03*
%TO.P,U1,5,D4*%
%TO.N,unconnected-(U1-D4-Pad5)*%
X63285000Y-79920000D03*
%TO.P,U1,6,RX2*%
%TO.N,unconnected-(U1-RX2-Pad6)*%
X63285000Y-82460000D03*
%TO.P,U1,7,TX2*%
%TO.N,unconnected-(U1-TX2-Pad7)*%
X63285000Y-85000000D03*
%TO.P,U1,8,D5*%
%TO.N,unconnected-(U1-D5-Pad8)*%
X63285000Y-87540000D03*
%TO.P,U1,9,D18*%
%TO.N,unconnected-(U1-D18-Pad9)*%
X63285000Y-90080000D03*
%TO.P,U1,10,D19*%
%TO.N,unconnected-(U1-D19-Pad10)*%
X63285000Y-92620000D03*
%TO.P,U1,11,D21*%
%TO.N,unconnected-(U1-D21-Pad11)*%
X63285000Y-95160000D03*
%TO.P,U1,12,RX0*%
%TO.N,unconnected-(U1-RX0-Pad12)*%
X63285000Y-97700000D03*
%TO.P,U1,13,TX0*%
%TO.N,unconnected-(U1-TX0-Pad13)*%
X63285000Y-100240000D03*
%TO.P,U1,14,D22*%
%TO.N,unconnected-(U1-D22-Pad14)*%
X63285000Y-102780000D03*
%TO.P,U1,15,D23*%
%TO.N,unconnected-(U1-D23-Pad15)*%
X63285000Y-105320000D03*
%TO.P,U1,16,EN*%
%TO.N,unconnected-(U1-EN-Pad16)*%
X88685000Y-105320000D03*
%TO.P,U1,17,VP*%
%TO.N,unconnected-(U1-VP-Pad17)*%
X88685000Y-102780000D03*
%TO.P,U1,18,VN*%
%TO.N,unconnected-(U1-VN-Pad18)*%
X88685000Y-100240000D03*
%TO.P,U1,19,D34*%
%TO.N,unconnected-(U1-D34-Pad19)*%
X88685000Y-97700000D03*
%TO.P,U1,20,D35*%
%TO.N,unconnected-(U1-D35-Pad20)*%
X88685000Y-95160000D03*
%TO.P,U1,21,D32*%
%TO.N,unconnected-(U1-D32-Pad21)*%
X88685000Y-92620000D03*
%TO.P,U1,22,D33*%
%TO.N,unconnected-(U1-D33-Pad22)*%
X88685000Y-90080000D03*
%TO.P,U1,23,D25*%
%TO.N,Net-(U1-D25)*%
X88685000Y-87540000D03*
%TO.P,U1,24,D26*%
%TO.N,Hot*%
X88685000Y-85000000D03*
%TO.P,U1,25,D27*%
%TO.N,unconnected-(U1-D27-Pad25)*%
X88685000Y-82460000D03*
%TO.P,U1,26,D14*%
%TO.N,unconnected-(U1-D14-Pad26)*%
X88685000Y-79920000D03*
%TO.P,U1,27,D12*%
%TO.N,unconnected-(U1-D12-Pad27)*%
X88685000Y-77380000D03*
%TO.P,U1,28,D13*%
%TO.N,unconnected-(U1-D13-Pad28)*%
X88685000Y-74840000D03*
%TO.P,U1,29,GND*%
%TO.N,GND*%
X88685000Y-72300000D03*
%TO.P,U1,30,VIN*%
%TO.N,Net-(U1-VIN)*%
X88685000Y-69760000D03*
%TD*%
D13*
%TO.P,H4,1,1*%
%TO.N,Net-(U1-D25)*%
X147320000Y-101600000D03*
%TD*%
D14*
%TO.P,R4,1*%
%TO.N,Net-(U1-3V3)*%
X100330000Y-101600000D03*
D15*
%TO.P,R4,2*%
%TO.N,Net-(U1-D25)*%
X107950000Y-101600000D03*
%TD*%
D14*
%TO.P,R2,1*%
%TO.N,Net-(Q1-Pad3)*%
X120650000Y-83820000D03*
D15*
%TO.P,R2,2*%
%TO.N,Net-(Q2-Pad1)*%
X128270000Y-83820000D03*
%TD*%
D13*
%TO.P,H3,1,1*%
%TO.N,GND*%
X147320000Y-109220000D03*
%TD*%
%TO.P,H1,1,1*%
%TO.N,Net-(H1-Pad1)*%
X152400000Y-58420000D03*
%TD*%
%TO.P,H2,1,1*%
%TO.N,GND*%
X152400000Y-63770000D03*
%TD*%
D14*
%TO.P,R1,1*%
%TO.N,Net-(U2-VI)*%
X114300000Y-57150000D03*
D15*
%TO.P,R1,2*%
%TO.N,Net-(Q1-Pad3)*%
X114300000Y-64770000D03*
%TD*%
D16*
%TO.P,Q1,1*%
%TO.N,GND*%
X113880000Y-78740000D03*
D17*
%TO.P,Q1,2*%
%TO.N,Net-(Q1-Pad2)*%
X113880000Y-76200000D03*
%TO.P,Q1,3*%
%TO.N,Net-(Q1-Pad3)*%
X113880000Y-73660000D03*
%TD*%
D18*
%TO.P,Q2,1*%
%TO.N,Net-(Q2-Pad1)*%
X137160000Y-71490000D03*
D19*
%TO.P,Q2,2*%
%TO.N,Net-(U2-VI)*%
X137160000Y-66040000D03*
%TO.P,Q2,3*%
%TO.N,Net-(H1-Pad1)*%
X137160000Y-60590000D03*
%TD*%
D14*
%TO.P,R3,1*%
%TO.N,Hot*%
X95250000Y-83820000D03*
D15*
%TO.P,R3,2*%
%TO.N,Net-(Q1-Pad2)*%
X102870000Y-83820000D03*
%TD*%
D20*
%TO.P,U2,1,ADJ*%
%TO.N,GND*%
X101600000Y-50560000D03*
%TO.P,U2,2,VO*%
%TO.N,Net-(U1-VIN)*%
X101600000Y-48260000D03*
D21*
X95300000Y-48260000D03*
D20*
%TO.P,U2,3,VI*%
%TO.N,Net-(U2-VI)*%
X101600000Y-45960000D03*
%TD*%
D22*
%TO.P,J1,1*%
%TO.N,Net-(U2-VI)*%
X74580000Y-45720000D03*
D23*
%TO.P,J1,2*%
%TO.N,GND*%
X68580000Y-45720000D03*
D24*
%TO.P,J1,3*%
X71580000Y-50420000D03*
%TD*%
D25*
%TO.N,Net-(U1-VIN)*%
X88685000Y-69760000D02*
X90137500Y-69760000D01*
X104140000Y-48900000D02*
X104140000Y-55757500D01*
X103500000Y-48260000D02*
X104140000Y-48900000D01*
X104140000Y-55757500D02*
X98817500Y-61080000D01*
X101600000Y-48260000D02*
X103500000Y-48260000D01*
X90137500Y-69760000D02*
X98817500Y-61080000D01*
X95300000Y-48260000D02*
X101600000Y-48260000D01*
D26*
%TO.N,GND*%
X116840000Y-83649000D02*
X116840000Y-91440000D01*
X113880000Y-78740000D02*
X113880000Y-80689000D01*
X113880000Y-84240000D02*
X113880000Y-80689000D01*
X68580000Y-47420000D02*
X71580000Y-50420000D01*
X101600000Y-88900000D02*
X109220000Y-88900000D01*
X74500000Y-53340000D02*
X71580000Y-50420000D01*
X113880000Y-80689000D02*
X116840000Y-83649000D01*
X101030090Y-88330090D02*
X101600000Y-88900000D01*
X98817500Y-76080000D02*
X98817500Y-84147410D01*
X68580000Y-45720000D02*
X68580000Y-47420000D01*
X101030090Y-86360000D02*
X101030090Y-88330090D01*
X152400000Y-63770000D02*
X152400000Y-93980000D01*
X101600000Y-50560000D02*
X98820000Y-53340000D01*
X78460787Y-72300000D02*
X71580000Y-65419213D01*
X88685000Y-72300000D02*
X95037500Y-72300000D01*
X55880000Y-119380000D02*
X137160000Y-119380000D01*
X152400000Y-104140000D02*
X147320000Y-109220000D01*
X116840000Y-91440000D02*
X119380000Y-93980000D01*
X137160000Y-119380000D02*
X147320000Y-109220000D01*
X119380000Y-93980000D02*
X152400000Y-93980000D01*
X71580000Y-65419213D02*
X64699213Y-72300000D01*
X53340000Y-68660000D02*
X71580000Y-50420000D01*
X98817500Y-84147410D02*
X101030090Y-86360000D01*
X88685000Y-72300000D02*
X78460787Y-72300000D01*
X95037500Y-72300000D02*
X98817500Y-76080000D01*
X55880000Y-119380000D02*
X53340000Y-116840000D01*
X98820000Y-53340000D02*
X74500000Y-53340000D01*
X64699213Y-72300000D02*
X63285000Y-72300000D01*
X53340000Y-116840000D02*
X53340000Y-68660000D01*
X109220000Y-88900000D02*
X113880000Y-84240000D01*
X152400000Y-93980000D02*
X152400000Y-104140000D01*
X71580000Y-50420000D02*
X71580000Y-65419213D01*
D25*
%TO.N,Net-(H1-Pad1)*%
X137160000Y-60590000D02*
X139330000Y-58420000D01*
X139330000Y-58420000D02*
X152400000Y-58420000D01*
%TO.N,Net-(U2-VI)*%
X103110000Y-45960000D02*
X114300000Y-57150000D01*
X98820000Y-43180000D02*
X101600000Y-45960000D01*
X128270000Y-57150000D02*
X137160000Y-66040000D01*
X93980000Y-43180000D02*
X98820000Y-43180000D01*
X114300000Y-57150000D02*
X128270000Y-57150000D01*
X74580000Y-45720000D02*
X91440000Y-45720000D01*
X91440000Y-45720000D02*
X93980000Y-43180000D01*
X101600000Y-45960000D02*
X103110000Y-45960000D01*
%TO.N,Net-(Q1-Pad2)*%
X102870000Y-83820000D02*
X106260000Y-83820000D01*
X106260000Y-83820000D02*
X113880000Y-76200000D01*
%TO.N,Net-(Q1-Pad3)*%
X113880000Y-65190000D02*
X114300000Y-64770000D01*
X113880000Y-73660000D02*
X120650000Y-80430000D01*
X120650000Y-80430000D02*
X120650000Y-83820000D01*
X113880000Y-73660000D02*
X113880000Y-65190000D01*
%TO.N,Net-(Q2-Pad1)*%
X132080000Y-83820000D02*
X137160000Y-78740000D01*
X137160000Y-78740000D02*
X137160000Y-71490000D01*
X128270000Y-83820000D02*
X132080000Y-83820000D01*
D27*
%TO.N,Hot*%
X94070000Y-85000000D02*
X95250000Y-83820000D01*
X88685000Y-85000000D02*
X94070000Y-85000000D01*
D25*
%TO.N,Net-(U1-3V3)*%
X60960000Y-116840000D02*
X88900000Y-116840000D01*
X58420000Y-71120000D02*
X58420000Y-114300000D01*
X100330000Y-105410000D02*
X100330000Y-101600000D01*
X63285000Y-69760000D02*
X59780000Y-69760000D01*
X58420000Y-114300000D02*
X60960000Y-116840000D01*
X59780000Y-69760000D02*
X58420000Y-71120000D01*
X88900000Y-116840000D02*
X100330000Y-105410000D01*
%TO.N,Net-(U1-D25)*%
X88685000Y-87540000D02*
X97665000Y-96520000D01*
X114300000Y-99060000D02*
X114300000Y-101600000D01*
X97665000Y-96520000D02*
X111760000Y-96520000D01*
X114300000Y-101600000D02*
X147320000Y-101600000D01*
X107950000Y-101600000D02*
X114300000Y-101600000D01*
X111760000Y-96520000D02*
X114300000Y-99060000D01*
%TD*%
%TA.AperFunction,Conductor*%
%TO.N,GND*%
G36*
X157422539Y-33040185D02*
G01*
X157468294Y-33092989D01*
X157479500Y-33144500D01*
X157479500Y-124335500D01*
X157459815Y-124402539D01*
X157407011Y-124448294D01*
X157355500Y-124459500D01*
X48384500Y-124459500D01*
X48317461Y-124439815D01*
X48271706Y-124387011D01*
X48260500Y-124335500D01*
X48260500Y-71144201D01*
X57464904Y-71144201D01*
X57466804Y-71159120D01*
X57469003Y-71176385D01*
X57469500Y-71184214D01*
X57469500Y-114287937D01*
X57467355Y-114372545D01*
X57467355Y-114372546D01*
X57477615Y-114429787D01*
X57478269Y-114434452D01*
X57484154Y-114492318D01*
X57484156Y-114492326D01*
X57493865Y-114523269D01*
X57495737Y-114530898D01*
X57501460Y-114562828D01*
X57501461Y-114562830D01*
X57523032Y-114616833D01*
X57524613Y-114621272D01*
X57542025Y-114676768D01*
X57557765Y-114705125D01*
X57561135Y-114712221D01*
X57573168Y-114742343D01*
X57573170Y-114742348D01*
X57573172Y-114742351D01*
X57573173Y-114742353D01*
X57605174Y-114790908D01*
X57607605Y-114794920D01*
X57635841Y-114845791D01*
X57656972Y-114870406D01*
X57661703Y-114876680D01*
X57679547Y-114903757D01*
X57720667Y-114944877D01*
X57723870Y-114948333D01*
X57743814Y-114971564D01*
X57761760Y-114992468D01*
X57761764Y-114992471D01*
X57761765Y-114992472D01*
X57787407Y-115012320D01*
X57793303Y-115017513D01*
X60279372Y-117503582D01*
X60337673Y-117564916D01*
X60385418Y-117598148D01*
X60389181Y-117600986D01*
X60434243Y-117637730D01*
X60434246Y-117637731D01*
X60434249Y-117637734D01*
X60462299Y-117652386D01*
X60462998Y-117652751D01*
X60469716Y-117656821D01*
X60496342Y-117675353D01*
X60549808Y-117698296D01*
X60554049Y-117700310D01*
X60605594Y-117727236D01*
X60636788Y-117736161D01*
X60644157Y-117738785D01*
X60673988Y-117751587D01*
X60730986Y-117763299D01*
X60735525Y-117764413D01*
X60791448Y-117780416D01*
X60791453Y-117780416D01*
X60791455Y-117780417D01*
X60806321Y-117781548D01*
X60823786Y-117782878D01*
X60831563Y-117783969D01*
X60863341Y-117790500D01*
X60863344Y-117790500D01*
X60921516Y-117790500D01*
X60926222Y-117790678D01*
X60952029Y-117792644D01*
X60984202Y-117795094D01*
X60984202Y-117795093D01*
X60984203Y-117795094D01*
X61016378Y-117790996D01*
X61024208Y-117790500D01*
X88887937Y-117790500D01*
X88972539Y-117792644D01*
X88972539Y-117792643D01*
X88972546Y-117792644D01*
X89029818Y-117782378D01*
X89034432Y-117781731D01*
X89092321Y-117775845D01*
X89123286Y-117766128D01*
X89130886Y-117764263D01*
X89162828Y-117758539D01*
X89216830Y-117736967D01*
X89221267Y-117735387D01*
X89225957Y-117733915D01*
X89276768Y-117717974D01*
X89305134Y-117702228D01*
X89312214Y-117698866D01*
X89342348Y-117686830D01*
X89390917Y-117654818D01*
X89394926Y-117652389D01*
X89445791Y-117624159D01*
X89470408Y-117603023D01*
X89476672Y-117598301D01*
X89503759Y-117580451D01*
X89544906Y-117539302D01*
X89548325Y-117536134D01*
X89592468Y-117498240D01*
X89612328Y-117472581D01*
X89617499Y-117466709D01*
X97864204Y-109220005D01*
X144915255Y-109220005D01*
X144934215Y-109521383D01*
X144934216Y-109521390D01*
X144990805Y-109818040D01*
X145084125Y-110105247D01*
X145084127Y-110105252D01*
X145212704Y-110378491D01*
X145212707Y-110378497D01*
X145374513Y-110633464D01*
X145455312Y-110731133D01*
X146384211Y-109802235D01*
X146484894Y-109943624D01*
X146636932Y-110088592D01*
X146739222Y-110154329D01*
X145806564Y-111086986D01*
X146031474Y-111250393D01*
X146031485Y-111250400D01*
X146296109Y-111395878D01*
X146296117Y-111395882D01*
X146576889Y-111507047D01*
X146576892Y-111507048D01*
X146869399Y-111582150D01*
X147168995Y-111619999D01*
X147169007Y-111620000D01*
X147470993Y-111620000D01*
X147471004Y-111619999D01*
X147770600Y-111582150D01*
X148063107Y-111507048D01*
X148063110Y-111507047D01*
X148343882Y-111395882D01*
X148343890Y-111395878D01*
X148608514Y-111250400D01*
X148608525Y-111250393D01*
X148833433Y-111086986D01*
X148833434Y-111086986D01*
X147903306Y-110156859D01*
X147917410Y-110149589D01*
X148082540Y-110019729D01*
X148220110Y-109860965D01*
X148254665Y-109801112D01*
X149184686Y-110731133D01*
X149265483Y-110633469D01*
X149427292Y-110378497D01*
X149427295Y-110378491D01*
X149555872Y-110105252D01*
X149555874Y-110105247D01*
X149649194Y-109818040D01*
X149705783Y-109521390D01*
X149705784Y-109521383D01*
X149724745Y-109220005D01*
X149724745Y-109219994D01*
X149705784Y-108918616D01*
X149705783Y-108918609D01*
X149649194Y-108621959D01*
X149555874Y-108334752D01*
X149555872Y-108334747D01*
X149427295Y-108061508D01*
X149427292Y-108061502D01*
X149265486Y-107806535D01*
X149184685Y-107708864D01*
X148255787Y-108637763D01*
X148155106Y-108496376D01*
X148003068Y-108351408D01*
X147900777Y-108285669D01*
X148833434Y-107353012D01*
X148608530Y-107189609D01*
X148608520Y-107189602D01*
X148343890Y-107044121D01*
X148343882Y-107044117D01*
X148063110Y-106932952D01*
X148063107Y-106932951D01*
X147770600Y-106857849D01*
X147471004Y-106820000D01*
X147168995Y-106820000D01*
X146869399Y-106857849D01*
X146576892Y-106932951D01*
X146576889Y-106932952D01*
X146296117Y-107044117D01*
X146296109Y-107044121D01*
X146031479Y-107189602D01*
X146031461Y-107189614D01*
X145806565Y-107353010D01*
X145806564Y-107353012D01*
X146736693Y-108283140D01*
X146722590Y-108290411D01*
X146557460Y-108420271D01*
X146419890Y-108579035D01*
X146385334Y-108638886D01*
X145455312Y-107708864D01*
X145374516Y-107806530D01*
X145212707Y-108061502D01*
X145212704Y-108061508D01*
X145084127Y-108334747D01*
X145084125Y-108334752D01*
X144990805Y-108621959D01*
X144934216Y-108918609D01*
X144934215Y-108918616D01*
X144915255Y-109219994D01*
X144915255Y-109220005D01*
X97864204Y-109220005D01*
X100993582Y-106090627D01*
X101054919Y-106032323D01*
X101088161Y-105984562D01*
X101090962Y-105980846D01*
X101127734Y-105935751D01*
X101142758Y-105906986D01*
X101146819Y-105900283D01*
X101165353Y-105873658D01*
X101188304Y-105820173D01*
X101190295Y-105815981D01*
X101217237Y-105764406D01*
X101226163Y-105733209D01*
X101228788Y-105725834D01*
X101241587Y-105696012D01*
X101253299Y-105639012D01*
X101254412Y-105634484D01*
X101270417Y-105578552D01*
X101272880Y-105546195D01*
X101273967Y-105538437D01*
X101280500Y-105506656D01*
X101280500Y-105448496D01*
X101280679Y-105443787D01*
X101285095Y-105385797D01*
X101280996Y-105353615D01*
X101280500Y-105345784D01*
X101280500Y-102540048D01*
X101300185Y-102473009D01*
X101316816Y-102452369D01*
X101330047Y-102439139D01*
X101460568Y-102252734D01*
X101556739Y-102046496D01*
X101615635Y-101826692D01*
X101635468Y-101600000D01*
X101635467Y-101599994D01*
X101615635Y-101373313D01*
X101615635Y-101373308D01*
X101556739Y-101153504D01*
X101460568Y-100947266D01*
X101330047Y-100760861D01*
X101330045Y-100760858D01*
X101169141Y-100599954D01*
X100982734Y-100469432D01*
X100982732Y-100469431D01*
X100776497Y-100373261D01*
X100776488Y-100373258D01*
X100556697Y-100314366D01*
X100556693Y-100314365D01*
X100556692Y-100314365D01*
X100556691Y-100314364D01*
X100556686Y-100314364D01*
X100330002Y-100294532D01*
X100329998Y-100294532D01*
X100103313Y-100314364D01*
X100103302Y-100314366D01*
X99883511Y-100373258D01*
X99883502Y-100373261D01*
X99677267Y-100469431D01*
X99677265Y-100469432D01*
X99490858Y-100599954D01*
X99329954Y-100760858D01*
X99199432Y-100947265D01*
X99199431Y-100947267D01*
X99103261Y-101153502D01*
X99103258Y-101153511D01*
X99044366Y-101373302D01*
X99044364Y-101373313D01*
X99024532Y-101599998D01*
X99024532Y-101600001D01*
X99044364Y-101826686D01*
X99044366Y-101826697D01*
X99103258Y-102046488D01*
X99103261Y-102046497D01*
X99199431Y-102252732D01*
X99199432Y-102252734D01*
X99329951Y-102439137D01*
X99329952Y-102439138D01*
X99329953Y-102439139D01*
X99343180Y-102452366D01*
X99376665Y-102513686D01*
X99379500Y-102540048D01*
X99379500Y-104964928D01*
X99359815Y-105031967D01*
X99343181Y-105052609D01*
X88542609Y-115853181D01*
X88481286Y-115886666D01*
X88454928Y-115889500D01*
X61405072Y-115889500D01*
X61338033Y-115869815D01*
X61317391Y-115853181D01*
X59406819Y-113942609D01*
X59373334Y-113881286D01*
X59370500Y-113854928D01*
X59370500Y-71565072D01*
X59390185Y-71498033D01*
X59406819Y-71477391D01*
X60137391Y-70746819D01*
X60198714Y-70713334D01*
X60225072Y-70710500D01*
X61662649Y-70710500D01*
X61729688Y-70730185D01*
X61775443Y-70782989D01*
X61785939Y-70821248D01*
X61790908Y-70867483D01*
X61841202Y-71002328D01*
X61841206Y-71002335D01*
X61927452Y-71117544D01*
X61927455Y-71117547D01*
X62042663Y-71203793D01*
X62047799Y-71206597D01*
X62097205Y-71256002D01*
X62112057Y-71324275D01*
X62092182Y-71383251D01*
X61961267Y-71583632D01*
X61861412Y-71811282D01*
X61800387Y-72052261D01*
X61800385Y-72052270D01*
X61779859Y-72299994D01*
X61779859Y-72300005D01*
X61800385Y-72547729D01*
X61800387Y-72547738D01*
X61861412Y-72788717D01*
X61961266Y-73016364D01*
X62061564Y-73169882D01*
X62793866Y-72437579D01*
X62816318Y-72514040D01*
X62895605Y-72637413D01*
X63006438Y-72733451D01*
X63139839Y-72794373D01*
X63143634Y-72794918D01*
X62414942Y-73523609D01*
X62416343Y-73546177D01*
X62400850Y-73614307D01*
X62368744Y-73651713D01*
X62265258Y-73732260D01*
X62096833Y-73915217D01*
X61960826Y-74123393D01*
X61860936Y-74351118D01*
X61799892Y-74592175D01*
X61799890Y-74592187D01*
X61779357Y-74839994D01*
X61779357Y-74840005D01*
X61799890Y-75087812D01*
X61799892Y-75087824D01*
X61860936Y-75328881D01*
X61960826Y-75556606D01*
X62096833Y-75764782D01*
X62096836Y-75764785D01*
X62265256Y-75947738D01*
X62348008Y-76012147D01*
X62388821Y-76068857D01*
X62392496Y-76138630D01*
X62357864Y-76199313D01*
X62348014Y-76207848D01*
X62289400Y-76253469D01*
X62265257Y-76272261D01*
X62096833Y-76455217D01*
X61960826Y-76663393D01*
X61860936Y-76891118D01*
X61799892Y-77132175D01*
X61799890Y-77132187D01*
X61779357Y-77379994D01*
X61779357Y-77380005D01*
X61799890Y-77627812D01*
X61799892Y-77627824D01*
X61860936Y-77868881D01*
X61960826Y-78096606D01*
X62096833Y-78304782D01*
X62096836Y-78304785D01*
X62265256Y-78487738D01*
X62348008Y-78552147D01*
X62388821Y-78608857D01*
X62392496Y-78678630D01*
X62357864Y-78739313D01*
X62348014Y-78747848D01*
X62314689Y-78773787D01*
X62265257Y-78812261D01*
X62096833Y-78995217D01*
X61960826Y-79203393D01*
X61860936Y-79431118D01*
X61799892Y-79672175D01*
X61799890Y-79672187D01*
X61779357Y-79919994D01*
X61779357Y-79920005D01*
X61799890Y-80167812D01*
X61799892Y-80167824D01*
X61860936Y-80408881D01*
X61960826Y-80636606D01*
X62096833Y-80844782D01*
X62096836Y-80844785D01*
X62265256Y-81027738D01*
X62348008Y-81092147D01*
X62388821Y-81148857D01*
X62392496Y-81218630D01*
X62357864Y-81279313D01*
X62348014Y-81287848D01*
X62289400Y-81333469D01*
X62265257Y-81352261D01*
X62096833Y-81535217D01*
X61960826Y-81743393D01*
X61860936Y-81971118D01*
X61799892Y-82212175D01*
X61799890Y-82212187D01*
X61779357Y-82459994D01*
X61779357Y-82460005D01*
X61799890Y-82707812D01*
X61799892Y-82707824D01*
X61860936Y-82948881D01*
X61960826Y-83176606D01*
X62096833Y-83384782D01*
X62096836Y-83384785D01*
X62265256Y-83567738D01*
X62348008Y-83632147D01*
X62388821Y-83688857D01*
X62392496Y-83758630D01*
X62357864Y-83819313D01*
X62348014Y-83827848D01*
X62289400Y-83873469D01*
X62265257Y-83892261D01*
X62096833Y-84075217D01*
X61960826Y-84283393D01*
X61860936Y-84511118D01*
X61799892Y-84752175D01*
X61799890Y-84752187D01*
X61779357Y-84999994D01*
X61779357Y-85000005D01*
X61799890Y-85247812D01*
X61799892Y-85247824D01*
X61860936Y-85488881D01*
X61960826Y-85716606D01*
X62096833Y-85924782D01*
X62107413Y-85936275D01*
X62265256Y-86107738D01*
X62348008Y-86172147D01*
X62388821Y-86228857D01*
X62392496Y-86298630D01*
X62357864Y-86359313D01*
X62348014Y-86367848D01*
X62289400Y-86413469D01*
X62265257Y-86432261D01*
X62096833Y-86615217D01*
X61960826Y-86823393D01*
X61860936Y-87051118D01*
X61799892Y-87292175D01*
X61799890Y-87292187D01*
X61779357Y-87539994D01*
X61779357Y-87540005D01*
X61799890Y-87787812D01*
X61799892Y-87787824D01*
X61860936Y-88028881D01*
X61960826Y-88256606D01*
X62096833Y-88464782D01*
X62096836Y-88464785D01*
X62265256Y-88647738D01*
X62348008Y-88712147D01*
X62388821Y-88768857D01*
X62392496Y-88838630D01*
X62357864Y-88899313D01*
X62348014Y-88907848D01*
X62289400Y-88953469D01*
X62265257Y-88972261D01*
X62096833Y-89155217D01*
X61960826Y-89363393D01*
X61860936Y-89591118D01*
X61799892Y-89832175D01*
X61799890Y-89832187D01*
X61779357Y-90079994D01*
X61779357Y-90080005D01*
X61799890Y-90327812D01*
X61799892Y-90327824D01*
X61860936Y-90568881D01*
X61960826Y-90796606D01*
X62096833Y-91004782D01*
X62096836Y-91004785D01*
X62265256Y-91187738D01*
X62348008Y-91252147D01*
X62388821Y-91308857D01*
X62392496Y-91378630D01*
X62357864Y-91439313D01*
X62348014Y-91447848D01*
X62289400Y-91493469D01*
X62265257Y-91512261D01*
X62096833Y-91695217D01*
X61960826Y-91903393D01*
X61860936Y-92131118D01*
X61799892Y-92372175D01*
X61799890Y-92372187D01*
X61779357Y-92619994D01*
X61779357Y-92620005D01*
X61799890Y-92867812D01*
X61799892Y-92867824D01*
X61860936Y-93108881D01*
X61960826Y-93336606D01*
X62096833Y-93544782D01*
X62096836Y-93544785D01*
X62265256Y-93727738D01*
X62348008Y-93792147D01*
X62388821Y-93848857D01*
X62392496Y-93918630D01*
X62357864Y-93979313D01*
X62348014Y-93987848D01*
X62289400Y-94033469D01*
X62265257Y-94052261D01*
X62096833Y-94235217D01*
X61960826Y-94443393D01*
X61860936Y-94671118D01*
X61799892Y-94912175D01*
X61799890Y-94912187D01*
X61779357Y-95159994D01*
X61779357Y-95160005D01*
X61799890Y-95407812D01*
X61799892Y-95407824D01*
X61860936Y-95648881D01*
X61960826Y-95876606D01*
X62096833Y-96084782D01*
X62096836Y-96084785D01*
X62265256Y-96267738D01*
X62348008Y-96332147D01*
X62388821Y-96388857D01*
X62392496Y-96458630D01*
X62357864Y-96519313D01*
X62348014Y-96527848D01*
X62289400Y-96573469D01*
X62265257Y-96592261D01*
X62096833Y-96775217D01*
X61960826Y-96983393D01*
X61860936Y-97211118D01*
X61799892Y-97452175D01*
X61799890Y-97452187D01*
X61779357Y-97699994D01*
X61779357Y-97700005D01*
X61799890Y-97947812D01*
X61799892Y-97947824D01*
X61860936Y-98188881D01*
X61960826Y-98416606D01*
X62096833Y-98624782D01*
X62096836Y-98624785D01*
X62265256Y-98807738D01*
X62348008Y-98872147D01*
X62388821Y-98928857D01*
X62392496Y-98998630D01*
X62357864Y-99059313D01*
X62348014Y-99067848D01*
X62289400Y-99113469D01*
X62265257Y-99132261D01*
X62096833Y-99315217D01*
X61960826Y-99523393D01*
X61860936Y-99751118D01*
X61799892Y-99992175D01*
X61799890Y-99992187D01*
X61779357Y-100239994D01*
X61779357Y-100240005D01*
X61799890Y-100487812D01*
X61799892Y-100487824D01*
X61860936Y-100728881D01*
X61960826Y-100956606D01*
X62096833Y-101164782D01*
X62096836Y-101164785D01*
X62265256Y-101347738D01*
X62348008Y-101412147D01*
X62388821Y-101468857D01*
X62392496Y-101538630D01*
X62357864Y-101599313D01*
X62348014Y-101607848D01*
X62289400Y-101653469D01*
X62265257Y-101672261D01*
X62096833Y-101855217D01*
X61960826Y-102063393D01*
X61860936Y-102291118D01*
X61799892Y-102532175D01*
X61799890Y-102532187D01*
X61779357Y-102779994D01*
X61779357Y-102780005D01*
X61799890Y-103027812D01*
X61799892Y-103027824D01*
X61860936Y-103268881D01*
X61960826Y-103496606D01*
X62096833Y-103704782D01*
X62096836Y-103704785D01*
X62265256Y-103887738D01*
X62348008Y-103952147D01*
X62388821Y-104008857D01*
X62392496Y-104078630D01*
X62357864Y-104139313D01*
X62348014Y-104147848D01*
X62289400Y-104193469D01*
X62265257Y-104212261D01*
X62096833Y-104395217D01*
X61960826Y-104603393D01*
X61860936Y-104831118D01*
X61799892Y-105072175D01*
X61799890Y-105072187D01*
X61779357Y-105319994D01*
X61779357Y-105320005D01*
X61799890Y-105567812D01*
X61799892Y-105567824D01*
X61860936Y-105808881D01*
X61960826Y-106036606D01*
X62096833Y-106244782D01*
X62096836Y-106244785D01*
X62265256Y-106427738D01*
X62461491Y-106580474D01*
X62680190Y-106698828D01*
X62915386Y-106779571D01*
X63160665Y-106820500D01*
X63191487Y-106820500D01*
X63258526Y-106840185D01*
X63304281Y-106892989D01*
X63314225Y-106962147D01*
X63285200Y-107025703D01*
X63226422Y-107063477D01*
X63219079Y-107065391D01*
X63187597Y-107072576D01*
X63187578Y-107072582D01*
X62943356Y-107168432D01*
X62716143Y-107299614D01*
X62511014Y-107463198D01*
X62332567Y-107655520D01*
X62184768Y-107872302D01*
X62184767Y-107872303D01*
X62070938Y-108108673D01*
X61993606Y-108359376D01*
X61993605Y-108359381D01*
X61993604Y-108359385D01*
X61984427Y-108420271D01*
X61954500Y-108618812D01*
X61954500Y-108881187D01*
X61974794Y-109015823D01*
X61993604Y-109140615D01*
X61993605Y-109140617D01*
X61993606Y-109140623D01*
X62070938Y-109391326D01*
X62184767Y-109627696D01*
X62184768Y-109627697D01*
X62184770Y-109627700D01*
X62184772Y-109627704D01*
X62283494Y-109772502D01*
X62332567Y-109844479D01*
X62511014Y-110036801D01*
X62511018Y-110036804D01*
X62511019Y-110036805D01*
X62716143Y-110200386D01*
X62943357Y-110331568D01*
X63187584Y-110427420D01*
X63443370Y-110485802D01*
X63443376Y-110485802D01*
X63443379Y-110485803D01*
X63639500Y-110500500D01*
X63639506Y-110500500D01*
X63770500Y-110500500D01*
X63966620Y-110485803D01*
X63966622Y-110485802D01*
X63966630Y-110485802D01*
X64222416Y-110427420D01*
X64466643Y-110331568D01*
X64693857Y-110200386D01*
X64898981Y-110036805D01*
X65077433Y-109844479D01*
X65225228Y-109627704D01*
X65339063Y-109391323D01*
X65416396Y-109140615D01*
X65455500Y-108881182D01*
X65455500Y-108618818D01*
X65416396Y-108359385D01*
X65339063Y-108108677D01*
X65316345Y-108061502D01*
X65225232Y-107872303D01*
X65225231Y-107872302D01*
X65225230Y-107872301D01*
X65225228Y-107872296D01*
X65077433Y-107655521D01*
X65067441Y-107644753D01*
X64898985Y-107463198D01*
X64859533Y-107431736D01*
X64693857Y-107299614D01*
X64466643Y-107168432D01*
X64222416Y-107072580D01*
X64222411Y-107072578D01*
X64222402Y-107072576D01*
X64004818Y-107022914D01*
X63966630Y-107014198D01*
X63966629Y-107014197D01*
X63966625Y-107014197D01*
X63966620Y-107014196D01*
X63770500Y-106999500D01*
X63770494Y-106999500D01*
X63757075Y-106999500D01*
X63690036Y-106979815D01*
X63644281Y-106927011D01*
X63634337Y-106857853D01*
X63663362Y-106794297D01*
X63716812Y-106758219D01*
X63795976Y-106731040D01*
X63889810Y-106698828D01*
X64108509Y-106580474D01*
X64304744Y-106427738D01*
X64473164Y-106244785D01*
X64609173Y-106036607D01*
X64709063Y-105808881D01*
X64770108Y-105567821D01*
X64771899Y-105546210D01*
X64790643Y-105320005D01*
X64790643Y-105319994D01*
X64770109Y-105072187D01*
X64770107Y-105072175D01*
X64709063Y-104831118D01*
X64609173Y-104603393D01*
X64473166Y-104395217D01*
X64451557Y-104371744D01*
X64348690Y-104260000D01*
X67075000Y-104260000D01*
X67075000Y-110750000D01*
X84765000Y-110750000D01*
X84765000Y-104260000D01*
X67075000Y-104260000D01*
X64348690Y-104260000D01*
X64304744Y-104212262D01*
X64221991Y-104147852D01*
X64181179Y-104091143D01*
X64177504Y-104021370D01*
X64212136Y-103960687D01*
X64221985Y-103952151D01*
X64304744Y-103887738D01*
X64473164Y-103704785D01*
X64609173Y-103496607D01*
X64709063Y-103268881D01*
X64770108Y-103027821D01*
X64770109Y-103027812D01*
X64790643Y-102780005D01*
X64790643Y-102779994D01*
X64770109Y-102532187D01*
X64770107Y-102532175D01*
X64709063Y-102291118D01*
X64609173Y-102063393D01*
X64473166Y-101855217D01*
X64446901Y-101826686D01*
X64304744Y-101672262D01*
X64221991Y-101607852D01*
X64181179Y-101551143D01*
X64177504Y-101481370D01*
X64212136Y-101420687D01*
X64221985Y-101412151D01*
X64304744Y-101347738D01*
X64473164Y-101164785D01*
X64609173Y-100956607D01*
X64709063Y-100728881D01*
X64770108Y-100487821D01*
X64773966Y-100441261D01*
X64790643Y-100240005D01*
X64790643Y-100239994D01*
X64770109Y-99992187D01*
X64770107Y-99992175D01*
X64709063Y-99751118D01*
X64609173Y-99523393D01*
X64473166Y-99315217D01*
X64451557Y-99291744D01*
X64304744Y-99132262D01*
X64221991Y-99067852D01*
X64181179Y-99011143D01*
X64177504Y-98941370D01*
X64212136Y-98880687D01*
X64221985Y-98872151D01*
X64304744Y-98807738D01*
X64473164Y-98624785D01*
X64609173Y-98416607D01*
X64709063Y-98188881D01*
X64770108Y-97947821D01*
X64790643Y-97700000D01*
X64773257Y-97490185D01*
X64770109Y-97452187D01*
X64770107Y-97452175D01*
X64709063Y-97211118D01*
X64609173Y-96983393D01*
X64473166Y-96775217D01*
X64451557Y-96751744D01*
X64304744Y-96592262D01*
X64221991Y-96527852D01*
X64181179Y-96471143D01*
X64177504Y-96401370D01*
X64212136Y-96340687D01*
X64221985Y-96332151D01*
X64304744Y-96267738D01*
X64473164Y-96084785D01*
X64609173Y-95876607D01*
X64709063Y-95648881D01*
X64770108Y-95407821D01*
X64790643Y-95160000D01*
X64770108Y-94912179D01*
X64709063Y-94671119D01*
X64609173Y-94443393D01*
X64473166Y-94235217D01*
X64451557Y-94211744D01*
X64304744Y-94052262D01*
X64221991Y-93987852D01*
X64181179Y-93931143D01*
X64177504Y-93861370D01*
X64212136Y-93800687D01*
X64221985Y-93792151D01*
X64304744Y-93727738D01*
X64473164Y-93544785D01*
X64609173Y-93336607D01*
X64709063Y-93108881D01*
X64770108Y-92867821D01*
X64790643Y-92620000D01*
X64770108Y-92372179D01*
X64709063Y-92131119D01*
X64609173Y-91903393D01*
X64473166Y-91695217D01*
X64451557Y-91671744D01*
X64304744Y-91512262D01*
X64221991Y-91447852D01*
X64181179Y-91391143D01*
X64177504Y-91321370D01*
X64212136Y-91260687D01*
X64221985Y-91252151D01*
X64304744Y-91187738D01*
X64473164Y-91004785D01*
X64609173Y-90796607D01*
X64709063Y-90568881D01*
X64770108Y-90327821D01*
X64790643Y-90080000D01*
X64770108Y-89832179D01*
X64709063Y-89591119D01*
X64609173Y-89363393D01*
X64473166Y-89155217D01*
X64451557Y-89131744D01*
X64304744Y-88972262D01*
X64221991Y-88907852D01*
X64181179Y-88851143D01*
X64177504Y-88781370D01*
X64212136Y-88720687D01*
X64221985Y-88712151D01*
X64304744Y-88647738D01*
X64473164Y-88464785D01*
X64609173Y-88256607D01*
X64709063Y-88028881D01*
X64770108Y-87787821D01*
X64770109Y-87787812D01*
X64790643Y-87540005D01*
X64790643Y-87539994D01*
X64770109Y-87292187D01*
X64770107Y-87292175D01*
X64709063Y-87051118D01*
X64609173Y-86823393D01*
X64473166Y-86615217D01*
X64451557Y-86591744D01*
X64304744Y-86432262D01*
X64221991Y-86367852D01*
X64181179Y-86311143D01*
X64177504Y-86241370D01*
X64212136Y-86180687D01*
X64221985Y-86172151D01*
X64304744Y-86107738D01*
X64473164Y-85924785D01*
X64609173Y-85716607D01*
X64709063Y-85488881D01*
X64770108Y-85247821D01*
X64777848Y-85154412D01*
X64790643Y-85000005D01*
X64790643Y-84999994D01*
X64770109Y-84752187D01*
X64770107Y-84752175D01*
X64709063Y-84511118D01*
X64609173Y-84283393D01*
X64473166Y-84075217D01*
X64421121Y-84018681D01*
X64304744Y-83892262D01*
X64221991Y-83827852D01*
X64181179Y-83771143D01*
X64177504Y-83701370D01*
X64212136Y-83640687D01*
X64221985Y-83632151D01*
X64304744Y-83567738D01*
X64473164Y-83384785D01*
X64609173Y-83176607D01*
X64709063Y-82948881D01*
X64770108Y-82707821D01*
X64784481Y-82534364D01*
X64790643Y-82460005D01*
X64790643Y-82459994D01*
X64770109Y-82212187D01*
X64770107Y-82212175D01*
X64709063Y-81971118D01*
X64609173Y-81743393D01*
X64473166Y-81535217D01*
X64451557Y-81511744D01*
X64304744Y-81352262D01*
X64221991Y-81287852D01*
X64181179Y-81231143D01*
X64177504Y-81161370D01*
X64212136Y-81100687D01*
X64221985Y-81092151D01*
X64304744Y-81027738D01*
X64473164Y-80844785D01*
X64609173Y-80636607D01*
X64709063Y-80408881D01*
X64770108Y-80167821D01*
X64770162Y-80167170D01*
X64790643Y-79920005D01*
X64790643Y-79919994D01*
X64770109Y-79672187D01*
X64770107Y-79672175D01*
X64709063Y-79431118D01*
X64609173Y-79203393D01*
X64473166Y-78995217D01*
X64402323Y-78918261D01*
X64304744Y-78812262D01*
X64221991Y-78747852D01*
X64181179Y-78691143D01*
X64177504Y-78621370D01*
X64212136Y-78560687D01*
X64221985Y-78552151D01*
X64304744Y-78487738D01*
X64473164Y-78304785D01*
X64609173Y-78096607D01*
X64709063Y-77868881D01*
X64770108Y-77627821D01*
X64773159Y-77591000D01*
X64790643Y-77380005D01*
X64790643Y-77379994D01*
X64770109Y-77132187D01*
X64770107Y-77132175D01*
X64709063Y-76891118D01*
X64609173Y-76663393D01*
X64473166Y-76455217D01*
X64432275Y-76410798D01*
X64304744Y-76272262D01*
X64221991Y-76207852D01*
X64181179Y-76151143D01*
X64177504Y-76081370D01*
X64212136Y-76020687D01*
X64221985Y-76012151D01*
X64304744Y-75947738D01*
X64473164Y-75764785D01*
X64609173Y-75556607D01*
X64709063Y-75328881D01*
X64770108Y-75087821D01*
X64773201Y-75050500D01*
X64790643Y-74840005D01*
X64790643Y-74839994D01*
X64770109Y-74592187D01*
X64770107Y-74592175D01*
X64709063Y-74351118D01*
X64609173Y-74123393D01*
X64473166Y-73915217D01*
X64433496Y-73872124D01*
X64304744Y-73732262D01*
X64201253Y-73651712D01*
X64160442Y-73595003D01*
X64153655Y-73546176D01*
X64155056Y-73523609D01*
X63426365Y-72794918D01*
X63430161Y-72794373D01*
X63563562Y-72733451D01*
X63674395Y-72637413D01*
X63753682Y-72514040D01*
X63776132Y-72437580D01*
X64508434Y-73169882D01*
X64608731Y-73016369D01*
X64708587Y-72788717D01*
X64769612Y-72547738D01*
X64769614Y-72547729D01*
X64790141Y-72300005D01*
X64790141Y-72299994D01*
X64769614Y-72052270D01*
X64769612Y-72052261D01*
X64708587Y-71811282D01*
X64608733Y-71583635D01*
X64477817Y-71383252D01*
X64457630Y-71316362D01*
X64476810Y-71249176D01*
X64522203Y-71206595D01*
X64527321Y-71203799D01*
X64527331Y-71203796D01*
X64642546Y-71117546D01*
X64728796Y-71002331D01*
X64779091Y-70867483D01*
X64785500Y-70807873D01*
X64785499Y-68712128D01*
X64779091Y-68652517D01*
X64728796Y-68517669D01*
X64728795Y-68517668D01*
X64728793Y-68517664D01*
X64642547Y-68402455D01*
X64642544Y-68402452D01*
X64527335Y-68316206D01*
X64527328Y-68316202D01*
X64392482Y-68265908D01*
X64392483Y-68265908D01*
X64332883Y-68259501D01*
X64332881Y-68259500D01*
X64332873Y-68259500D01*
X64332864Y-68259500D01*
X62237129Y-68259500D01*
X62237123Y-68259501D01*
X62177516Y-68265908D01*
X62042671Y-68316202D01*
X62042664Y-68316206D01*
X61927455Y-68402452D01*
X61927452Y-68402455D01*
X61841206Y-68517664D01*
X61841202Y-68517671D01*
X61791005Y-68652259D01*
X61790909Y-68652517D01*
X61785937Y-68698757D01*
X61759201Y-68763306D01*
X61701809Y-68803154D01*
X61662649Y-68809500D01*
X59792045Y-68809500D01*
X59707454Y-68807355D01*
X59707451Y-68807355D01*
X59650211Y-68817615D01*
X59645546Y-68818269D01*
X59587685Y-68824154D01*
X59587672Y-68824156D01*
X59556724Y-68833866D01*
X59549099Y-68835737D01*
X59517174Y-68841460D01*
X59517171Y-68841461D01*
X59463159Y-68863034D01*
X59458724Y-68864613D01*
X59413686Y-68878745D01*
X59403232Y-68882026D01*
X59403229Y-68882027D01*
X59403225Y-68882029D01*
X59374871Y-68897766D01*
X59367777Y-68901135D01*
X59337647Y-68913171D01*
X59289087Y-68945174D01*
X59285059Y-68947615D01*
X59234209Y-68975840D01*
X59234208Y-68975841D01*
X59209594Y-68996969D01*
X59203326Y-69001696D01*
X59176243Y-69019546D01*
X59176240Y-69019549D01*
X59135120Y-69060668D01*
X59131666Y-69063869D01*
X59087529Y-69101762D01*
X59067675Y-69127410D01*
X59062484Y-69133304D01*
X57756417Y-70439372D01*
X57695084Y-70497672D01*
X57695082Y-70497675D01*
X57661855Y-70545411D01*
X57659020Y-70549172D01*
X57622265Y-70594250D01*
X57607248Y-70622998D01*
X57603179Y-70629714D01*
X57584646Y-70656342D01*
X57584646Y-70656343D01*
X57575122Y-70678538D01*
X57564890Y-70702382D01*
X57561711Y-70709789D01*
X57559689Y-70714046D01*
X57532764Y-70765591D01*
X57532762Y-70765595D01*
X57523839Y-70796776D01*
X57521206Y-70804172D01*
X57508412Y-70833987D01*
X57508412Y-70833988D01*
X57496703Y-70890960D01*
X57495580Y-70895534D01*
X57479583Y-70951448D01*
X57479581Y-70951454D01*
X57477120Y-70983791D01*
X57476029Y-70991572D01*
X57469500Y-71023343D01*
X57469500Y-71081502D01*
X57469321Y-71086211D01*
X57464904Y-71144201D01*
X48260500Y-71144201D01*
X48260500Y-61931187D01*
X61954500Y-61931187D01*
X61962165Y-61982035D01*
X61993604Y-62190615D01*
X61993605Y-62190617D01*
X61993606Y-62190623D01*
X62070938Y-62441326D01*
X62184767Y-62677696D01*
X62184768Y-62677697D01*
X62184770Y-62677700D01*
X62184772Y-62677704D01*
X62259857Y-62787833D01*
X62332567Y-62894479D01*
X62511014Y-63086801D01*
X62511018Y-63086804D01*
X62511019Y-63086805D01*
X62716143Y-63250386D01*
X62943357Y-63381568D01*
X63187584Y-63477420D01*
X63443370Y-63535802D01*
X63443376Y-63535802D01*
X63443379Y-63535803D01*
X63639500Y-63550500D01*
X63639506Y-63550500D01*
X63770500Y-63550500D01*
X63966620Y-63535803D01*
X63966622Y-63535802D01*
X63966630Y-63535802D01*
X64222416Y-63477420D01*
X64466643Y-63381568D01*
X64693857Y-63250386D01*
X64898981Y-63086805D01*
X65077433Y-62894479D01*
X65225228Y-62677704D01*
X65339063Y-62441323D01*
X65416396Y-62190615D01*
X65455499Y-61931187D01*
X86464500Y-61931187D01*
X86472165Y-61982035D01*
X86503604Y-62190615D01*
X86503605Y-62190617D01*
X86503606Y-62190623D01*
X86580938Y-62441326D01*
X86694767Y-62677696D01*
X86694768Y-62677697D01*
X86694770Y-62677700D01*
X86694772Y-62677704D01*
X86769857Y-62787833D01*
X86842567Y-62894479D01*
X87021014Y-63086801D01*
X87021018Y-63086804D01*
X87021019Y-63086805D01*
X87226143Y-63250386D01*
X87453357Y-63381568D01*
X87697584Y-63477420D01*
X87953370Y-63535802D01*
X87953376Y-63535802D01*
X87953379Y-63535803D01*
X88149500Y-63550500D01*
X88149506Y-63550500D01*
X88280500Y-63550500D01*
X88476620Y-63535803D01*
X88476622Y-63535802D01*
X88476630Y-63535802D01*
X88732416Y-63477420D01*
X88976643Y-63381568D01*
X89203857Y-63250386D01*
X89408981Y-63086805D01*
X89587433Y-62894479D01*
X89735228Y-62677704D01*
X89849063Y-62441323D01*
X89926396Y-62190615D01*
X89965500Y-61931182D01*
X89965500Y-61668818D01*
X89926396Y-61409385D01*
X89849063Y-61158677D01*
X89827930Y-61114793D01*
X89735232Y-60922303D01*
X89735231Y-60922302D01*
X89735230Y-60922301D01*
X89735228Y-60922296D01*
X89587433Y-60705521D01*
X89577441Y-60694753D01*
X89408985Y-60513198D01*
X89330750Y-60450808D01*
X89203857Y-60349614D01*
X88976643Y-60218432D01*
X88732416Y-60122580D01*
X88732411Y-60122578D01*
X88732402Y-60122576D01*
X88514818Y-60072914D01*
X88476630Y-60064198D01*
X88476629Y-60064197D01*
X88476625Y-60064197D01*
X88476620Y-60064196D01*
X88280500Y-60049500D01*
X88280494Y-60049500D01*
X88149506Y-60049500D01*
X88149500Y-60049500D01*
X87953379Y-60064196D01*
X87953374Y-60064197D01*
X87697597Y-60122576D01*
X87697578Y-60122582D01*
X87453356Y-60218432D01*
X87226143Y-60349614D01*
X87021014Y-60513198D01*
X86842567Y-60705520D01*
X86694768Y-60922302D01*
X86694767Y-60922303D01*
X86580938Y-61158673D01*
X86503606Y-61409376D01*
X86503605Y-61409381D01*
X86503604Y-61409385D01*
X86492515Y-61482952D01*
X86464500Y-61668812D01*
X86464500Y-61931187D01*
X65455499Y-61931187D01*
X65455500Y-61931182D01*
X65455500Y-61668818D01*
X65416396Y-61409385D01*
X65339063Y-61158677D01*
X65317930Y-61114793D01*
X65225232Y-60922303D01*
X65225231Y-60922302D01*
X65225230Y-60922301D01*
X65225228Y-60922296D01*
X65077433Y-60705521D01*
X65067441Y-60694753D01*
X64898985Y-60513198D01*
X64820750Y-60450808D01*
X64693857Y-60349614D01*
X64466643Y-60218432D01*
X64222416Y-60122580D01*
X64222411Y-60122578D01*
X64222402Y-60122576D01*
X64004818Y-60072914D01*
X63966630Y-60064198D01*
X63966629Y-60064197D01*
X63966625Y-60064197D01*
X63966620Y-60064196D01*
X63770500Y-60049500D01*
X63770494Y-60049500D01*
X63639506Y-60049500D01*
X63639500Y-60049500D01*
X63443379Y-60064196D01*
X63443374Y-60064197D01*
X63187597Y-60122576D01*
X63187578Y-60122582D01*
X62943356Y-60218432D01*
X62716143Y-60349614D01*
X62511014Y-60513198D01*
X62332567Y-60705520D01*
X62184768Y-60922302D01*
X62184767Y-60922303D01*
X62070938Y-61158673D01*
X61993606Y-61409376D01*
X61993605Y-61409381D01*
X61993604Y-61409385D01*
X61982515Y-61482952D01*
X61954500Y-61668812D01*
X61954500Y-61931187D01*
X48260500Y-61931187D01*
X48260500Y-50170000D01*
X69330000Y-50170000D01*
X70146314Y-50170000D01*
X70120507Y-50210156D01*
X70080000Y-50348111D01*
X70080000Y-50491889D01*
X70120507Y-50629844D01*
X70146314Y-50670000D01*
X69330001Y-50670000D01*
X69330001Y-51388591D01*
X69332794Y-51441190D01*
X69377237Y-51670987D01*
X69459879Y-51889975D01*
X69578339Y-52091841D01*
X69578344Y-52091848D01*
X69729211Y-52270786D01*
X69729213Y-52270788D01*
X69908151Y-52421655D01*
X69908158Y-52421660D01*
X70110024Y-52540120D01*
X70329012Y-52622762D01*
X70558808Y-52667205D01*
X70611408Y-52669999D01*
X71329999Y-52669999D01*
X71330000Y-52669998D01*
X71330000Y-50920000D01*
X71830000Y-50920000D01*
X71830000Y-52669999D01*
X72548591Y-52669999D01*
X72601190Y-52667205D01*
X72830987Y-52622762D01*
X73049975Y-52540120D01*
X73251841Y-52421660D01*
X73251848Y-52421655D01*
X73430786Y-52270788D01*
X73430788Y-52270786D01*
X73581655Y-52091848D01*
X73581660Y-52091841D01*
X73700120Y-51889975D01*
X73782762Y-51670987D01*
X73827205Y-51441191D01*
X73827205Y-51441190D01*
X73830000Y-51388591D01*
X73830000Y-50810000D01*
X100100000Y-50810000D01*
X100100000Y-51357844D01*
X100106401Y-51417372D01*
X100106403Y-51417379D01*
X100156645Y-51552086D01*
X100156649Y-51552093D01*
X100242809Y-51667187D01*
X100242812Y-51667190D01*
X100357906Y-51753350D01*
X100357913Y-51753354D01*
X100492620Y-51803596D01*
X100492627Y-51803598D01*
X100552155Y-51809999D01*
X100552172Y-51810000D01*
X101350000Y-51810000D01*
X101350000Y-50810000D01*
X100100000Y-50810000D01*
X73830000Y-50810000D01*
X73830000Y-50670000D01*
X73013686Y-50670000D01*
X73039493Y-50629844D01*
X73080000Y-50491889D01*
X73080000Y-50348111D01*
X73039493Y-50210156D01*
X73013686Y-50170000D01*
X73829999Y-50170000D01*
X73829999Y-49451409D01*
X73827205Y-49398809D01*
X73782762Y-49169012D01*
X73700120Y-48950024D01*
X73581660Y-48748158D01*
X73581655Y-48748151D01*
X73430788Y-48569213D01*
X73430786Y-48569211D01*
X73251848Y-48418344D01*
X73251841Y-48418339D01*
X73049975Y-48299879D01*
X72830984Y-48217236D01*
X72825840Y-48216241D01*
X72763760Y-48184180D01*
X72728869Y-48123646D01*
X72732244Y-48053858D01*
X72772814Y-47996973D01*
X72837697Y-47971052D01*
X72849374Y-47970499D01*
X76377872Y-47970499D01*
X76437483Y-47964091D01*
X76572331Y-47913796D01*
X76687546Y-47827546D01*
X76773796Y-47712331D01*
X76824091Y-47577483D01*
X76830500Y-47517873D01*
X76830500Y-46794500D01*
X76850185Y-46727461D01*
X76902989Y-46681706D01*
X76954500Y-46670500D01*
X91427937Y-46670500D01*
X91512539Y-46672644D01*
X91512539Y-46672643D01*
X91512546Y-46672644D01*
X91569818Y-46662378D01*
X91574432Y-46661731D01*
X91632321Y-46655845D01*
X91663286Y-46646128D01*
X91670886Y-46644263D01*
X91702828Y-46638539D01*
X91756830Y-46616967D01*
X91761267Y-46615387D01*
X91765957Y-46613915D01*
X91816768Y-46597974D01*
X91845134Y-46582228D01*
X91852214Y-46578866D01*
X91882348Y-46566830D01*
X91930917Y-46534818D01*
X91934926Y-46532389D01*
X91985791Y-46504159D01*
X92010408Y-46483023D01*
X92016672Y-46478301D01*
X92043759Y-46460451D01*
X92084906Y-46419302D01*
X92088325Y-46416134D01*
X92132468Y-46378240D01*
X92152328Y-46352581D01*
X92157499Y-46346709D01*
X94337391Y-44166819D01*
X94398714Y-44133334D01*
X94425072Y-44130500D01*
X98374928Y-44130500D01*
X98441967Y-44150185D01*
X98462609Y-44166819D01*
X100063181Y-45767391D01*
X100096666Y-45828714D01*
X100099500Y-45855072D01*
X100099500Y-46757870D01*
X100099501Y-46757876D01*
X100105908Y-46817483D01*
X100156202Y-46952328D01*
X100156203Y-46952330D01*
X100218606Y-47035689D01*
X100243023Y-47101153D01*
X100228172Y-47169426D01*
X100218606Y-47184311D01*
X100162087Y-47259811D01*
X100106153Y-47301682D01*
X100062820Y-47309500D01*
X96924499Y-47309500D01*
X96857460Y-47289815D01*
X96811705Y-47237011D01*
X96800499Y-47185500D01*
X96800499Y-46312129D01*
X96800498Y-46312123D01*
X96800497Y-46312116D01*
X96794091Y-46252517D01*
X96743796Y-46117669D01*
X96743795Y-46117668D01*
X96743793Y-46117664D01*
X96657547Y-46002455D01*
X96657544Y-46002452D01*
X96542335Y-45916206D01*
X96542328Y-45916202D01*
X96407482Y-45865908D01*
X96407483Y-45865908D01*
X96347883Y-45859501D01*
X96347881Y-45859500D01*
X96347873Y-45859500D01*
X96347864Y-45859500D01*
X94252129Y-45859500D01*
X94252123Y-45859501D01*
X94192516Y-45865908D01*
X94057671Y-45916202D01*
X94057664Y-45916206D01*
X93942455Y-46002452D01*
X93942452Y-46002455D01*
X93856206Y-46117664D01*
X93856202Y-46117671D01*
X93805908Y-46252517D01*
X93799501Y-46312116D01*
X93799501Y-46312123D01*
X93799500Y-46312135D01*
X93799500Y-50207870D01*
X93799501Y-50207876D01*
X93805908Y-50267483D01*
X93856202Y-50402328D01*
X93856206Y-50402335D01*
X93942452Y-50517544D01*
X93942455Y-50517547D01*
X94057664Y-50603793D01*
X94057671Y-50603797D01*
X94192517Y-50654091D01*
X94192516Y-50654091D01*
X94199444Y-50654835D01*
X94252127Y-50660500D01*
X96347872Y-50660499D01*
X96407483Y-50654091D01*
X96542331Y-50603796D01*
X96657546Y-50517546D01*
X96743796Y-50402331D01*
X96794091Y-50267483D01*
X96800500Y-50207873D01*
X96800500Y-49334500D01*
X96820185Y-49267461D01*
X96872989Y-49221706D01*
X96924500Y-49210500D01*
X100062820Y-49210500D01*
X100129859Y-49230185D01*
X100162086Y-49260189D01*
X100218917Y-49336105D01*
X100243335Y-49401569D01*
X100228484Y-49469842D01*
X100218918Y-49484727D01*
X100156647Y-49567910D01*
X100156645Y-49567913D01*
X100106403Y-49702620D01*
X100106401Y-49702627D01*
X100100000Y-49762155D01*
X100100000Y-50310000D01*
X101726000Y-50310000D01*
X101793039Y-50329685D01*
X101838794Y-50382489D01*
X101850000Y-50434000D01*
X101850000Y-51810000D01*
X102647828Y-51810000D01*
X102647844Y-51809999D01*
X102707372Y-51803598D01*
X102707379Y-51803596D01*
X102842086Y-51753354D01*
X102842093Y-51753350D01*
X102957187Y-51667190D01*
X102957190Y-51667187D01*
X102966234Y-51655107D01*
X103022168Y-51613236D01*
X103091859Y-51608252D01*
X103153182Y-51641738D01*
X103186666Y-51703061D01*
X103189500Y-51729418D01*
X103189500Y-55312427D01*
X103169815Y-55379466D01*
X103153181Y-55400108D01*
X99010107Y-59543181D01*
X98948784Y-59576666D01*
X98922426Y-59579500D01*
X97769629Y-59579500D01*
X97769623Y-59579501D01*
X97710016Y-59585908D01*
X97575171Y-59636202D01*
X97575164Y-59636206D01*
X97459955Y-59722452D01*
X97459952Y-59722455D01*
X97373706Y-59837664D01*
X97373702Y-59837671D01*
X97323408Y-59972517D01*
X97317001Y-60032116D01*
X97317000Y-60032135D01*
X97317000Y-61184927D01*
X97297315Y-61251966D01*
X97280681Y-61272608D01*
X89890208Y-68663080D01*
X89828885Y-68696565D01*
X89759193Y-68691581D01*
X89711298Y-68659381D01*
X89704744Y-68652262D01*
X89508509Y-68499526D01*
X89508507Y-68499525D01*
X89508506Y-68499524D01*
X89289811Y-68381172D01*
X89289802Y-68381169D01*
X89054616Y-68300429D01*
X88809335Y-68259500D01*
X88560665Y-68259500D01*
X88315383Y-68300429D01*
X88080197Y-68381169D01*
X88080188Y-68381172D01*
X87861493Y-68499524D01*
X87665257Y-68652261D01*
X87496833Y-68835217D01*
X87360826Y-69043393D01*
X87260936Y-69271118D01*
X87199892Y-69512175D01*
X87199890Y-69512187D01*
X87179357Y-69759994D01*
X87179357Y-69760005D01*
X87199890Y-70007812D01*
X87199892Y-70007824D01*
X87260936Y-70248881D01*
X87360826Y-70476606D01*
X87496833Y-70684782D01*
X87525560Y-70715987D01*
X87665256Y-70867738D01*
X87665259Y-70867740D01*
X87665262Y-70867743D01*
X87768743Y-70948286D01*
X87809556Y-71004996D01*
X87816343Y-71053823D01*
X87814941Y-71076389D01*
X88543634Y-71805081D01*
X88539839Y-71805627D01*
X88406438Y-71866549D01*
X88295605Y-71962587D01*
X88216318Y-72085960D01*
X88193867Y-72162419D01*
X87461564Y-71430116D01*
X87361267Y-71583632D01*
X87261412Y-71811282D01*
X87200387Y-72052261D01*
X87200385Y-72052270D01*
X87179859Y-72299994D01*
X87179859Y-72300005D01*
X87200385Y-72547729D01*
X87200387Y-72547738D01*
X87261412Y-72788717D01*
X87361266Y-73016364D01*
X87461564Y-73169882D01*
X88193866Y-72437580D01*
X88216318Y-72514040D01*
X88295605Y-72637413D01*
X88406438Y-72733451D01*
X88539839Y-72794373D01*
X88543634Y-72794918D01*
X87814942Y-73523609D01*
X87816343Y-73546177D01*
X87800850Y-73614307D01*
X87768744Y-73651713D01*
X87665258Y-73732260D01*
X87496833Y-73915217D01*
X87360826Y-74123393D01*
X87260936Y-74351118D01*
X87199892Y-74592175D01*
X87199890Y-74592187D01*
X87179357Y-74839994D01*
X87179357Y-74840005D01*
X87199890Y-75087812D01*
X87199892Y-75087824D01*
X87260936Y-75328881D01*
X87360826Y-75556606D01*
X87496833Y-75764782D01*
X87496836Y-75764785D01*
X87665256Y-75947738D01*
X87748008Y-76012147D01*
X87788821Y-76068857D01*
X87792496Y-76138630D01*
X87757864Y-76199313D01*
X87748014Y-76207848D01*
X87689400Y-76253469D01*
X87665257Y-76272261D01*
X87496833Y-76455217D01*
X87360826Y-76663393D01*
X87260936Y-76891118D01*
X87199892Y-77132175D01*
X87199890Y-77132187D01*
X87179357Y-77379994D01*
X87179357Y-77380005D01*
X87199890Y-77627812D01*
X87199892Y-77627824D01*
X87260936Y-77868881D01*
X87360826Y-78096606D01*
X87496833Y-78304782D01*
X87496836Y-78304785D01*
X87665256Y-78487738D01*
X87748008Y-78552147D01*
X87788821Y-78608857D01*
X87792496Y-78678630D01*
X87757864Y-78739313D01*
X87748014Y-78747848D01*
X87714689Y-78773787D01*
X87665257Y-78812261D01*
X87496833Y-78995217D01*
X87360826Y-79203393D01*
X87260936Y-79431118D01*
X87199892Y-79672175D01*
X87199890Y-79672187D01*
X87179357Y-79919994D01*
X87179357Y-79920005D01*
X87199890Y-80167812D01*
X87199892Y-80167824D01*
X87260936Y-80408881D01*
X87360826Y-80636606D01*
X87496833Y-80844782D01*
X87496836Y-80844785D01*
X87665256Y-81027738D01*
X87748008Y-81092147D01*
X87788821Y-81148857D01*
X87792496Y-81218630D01*
X87757864Y-81279313D01*
X87748014Y-81287848D01*
X87689400Y-81333469D01*
X87665257Y-81352261D01*
X87496833Y-81535217D01*
X87360826Y-81743393D01*
X87260936Y-81971118D01*
X87199892Y-82212175D01*
X87199890Y-82212187D01*
X87179357Y-82459994D01*
X87179357Y-82460005D01*
X87199890Y-82707812D01*
X87199892Y-82707824D01*
X87260936Y-82948881D01*
X87360826Y-83176606D01*
X87496833Y-83384782D01*
X87496836Y-83384785D01*
X87665256Y-83567738D01*
X87748008Y-83632147D01*
X87788821Y-83688857D01*
X87792496Y-83758630D01*
X87757864Y-83819313D01*
X87748014Y-83827848D01*
X87689400Y-83873469D01*
X87665257Y-83892261D01*
X87496833Y-84075217D01*
X87360826Y-84283393D01*
X87260936Y-84511118D01*
X87199892Y-84752175D01*
X87199890Y-84752187D01*
X87179357Y-84999994D01*
X87179357Y-85000005D01*
X87199890Y-85247812D01*
X87199892Y-85247824D01*
X87260936Y-85488881D01*
X87360826Y-85716606D01*
X87496833Y-85924782D01*
X87507413Y-85936275D01*
X87665256Y-86107738D01*
X87748008Y-86172147D01*
X87788821Y-86228857D01*
X87792496Y-86298630D01*
X87757864Y-86359313D01*
X87748014Y-86367848D01*
X87689400Y-86413469D01*
X87665257Y-86432261D01*
X87496833Y-86615217D01*
X87360826Y-86823393D01*
X87260936Y-87051118D01*
X87199892Y-87292175D01*
X87199890Y-87292187D01*
X87179357Y-87539994D01*
X87179357Y-87540005D01*
X87199890Y-87787812D01*
X87199892Y-87787824D01*
X87260936Y-88028881D01*
X87360826Y-88256606D01*
X87496833Y-88464782D01*
X87496836Y-88464785D01*
X87665256Y-88647738D01*
X87748008Y-88712147D01*
X87788821Y-88768857D01*
X87792496Y-88838630D01*
X87757864Y-88899313D01*
X87748014Y-88907848D01*
X87689400Y-88953469D01*
X87665257Y-88972261D01*
X87496833Y-89155217D01*
X87360826Y-89363393D01*
X87260936Y-89591118D01*
X87199892Y-89832175D01*
X87199890Y-89832187D01*
X87179357Y-90079994D01*
X87179357Y-90080005D01*
X87199890Y-90327812D01*
X87199892Y-90327824D01*
X87260936Y-90568881D01*
X87360826Y-90796606D01*
X87496833Y-91004782D01*
X87496836Y-91004785D01*
X87665256Y-91187738D01*
X87748008Y-91252147D01*
X87788821Y-91308857D01*
X87792496Y-91378630D01*
X87757864Y-91439313D01*
X87748014Y-91447848D01*
X87689400Y-91493469D01*
X87665257Y-91512261D01*
X87496833Y-91695217D01*
X87360826Y-91903393D01*
X87260936Y-92131118D01*
X87199892Y-92372175D01*
X87199890Y-92372187D01*
X87179357Y-92619994D01*
X87179357Y-92620005D01*
X87199890Y-92867812D01*
X87199892Y-92867824D01*
X87260936Y-93108881D01*
X87360826Y-93336606D01*
X87496833Y-93544782D01*
X87496836Y-93544785D01*
X87665256Y-93727738D01*
X87748008Y-93792147D01*
X87788821Y-93848857D01*
X87792496Y-93918630D01*
X87757864Y-93979313D01*
X87748014Y-93987848D01*
X87689400Y-94033469D01*
X87665257Y-94052261D01*
X87496833Y-94235217D01*
X87360826Y-94443393D01*
X87260936Y-94671118D01*
X87199892Y-94912175D01*
X87199890Y-94912187D01*
X87179357Y-95159994D01*
X87179357Y-95160005D01*
X87199890Y-95407812D01*
X87199892Y-95407824D01*
X87260936Y-95648881D01*
X87360826Y-95876606D01*
X87496833Y-96084782D01*
X87496836Y-96084785D01*
X87665256Y-96267738D01*
X87748008Y-96332147D01*
X87788821Y-96388857D01*
X87792496Y-96458630D01*
X87757864Y-96519313D01*
X87748014Y-96527848D01*
X87689400Y-96573469D01*
X87665257Y-96592261D01*
X87496833Y-96775217D01*
X87360826Y-96983393D01*
X87260936Y-97211118D01*
X87199892Y-97452175D01*
X87199890Y-97452187D01*
X87179357Y-97699994D01*
X87179357Y-97700005D01*
X87199890Y-97947812D01*
X87199892Y-97947824D01*
X87260936Y-98188881D01*
X87360826Y-98416606D01*
X87496833Y-98624782D01*
X87496836Y-98624785D01*
X87665256Y-98807738D01*
X87748008Y-98872147D01*
X87788821Y-98928857D01*
X87792496Y-98998630D01*
X87757864Y-99059313D01*
X87748014Y-99067848D01*
X87689400Y-99113469D01*
X87665257Y-99132261D01*
X87496833Y-99315217D01*
X87360826Y-99523393D01*
X87260936Y-99751118D01*
X87199892Y-99992175D01*
X87199890Y-99992187D01*
X87179357Y-100239994D01*
X87179357Y-100240005D01*
X87199890Y-100487812D01*
X87199892Y-100487824D01*
X87260936Y-100728881D01*
X87360826Y-100956606D01*
X87496833Y-101164782D01*
X87496836Y-101164785D01*
X87665256Y-101347738D01*
X87748008Y-101412147D01*
X87788821Y-101468857D01*
X87792496Y-101538630D01*
X87757864Y-101599313D01*
X87748014Y-101607848D01*
X87689400Y-101653469D01*
X87665257Y-101672261D01*
X87496833Y-101855217D01*
X87360826Y-102063393D01*
X87260936Y-102291118D01*
X87199892Y-102532175D01*
X87199890Y-102532187D01*
X87179357Y-102779994D01*
X87179357Y-102780005D01*
X87199890Y-103027812D01*
X87199892Y-103027824D01*
X87260936Y-103268881D01*
X87360826Y-103496606D01*
X87496833Y-103704782D01*
X87496836Y-103704785D01*
X87665256Y-103887738D01*
X87748008Y-103952147D01*
X87788821Y-104008857D01*
X87792496Y-104078630D01*
X87757864Y-104139313D01*
X87748014Y-104147848D01*
X87689400Y-104193469D01*
X87665257Y-104212261D01*
X87496833Y-104395217D01*
X87360826Y-104603393D01*
X87260936Y-104831118D01*
X87199892Y-105072175D01*
X87199890Y-105072187D01*
X87179357Y-105319994D01*
X87179357Y-105320005D01*
X87199890Y-105567812D01*
X87199892Y-105567824D01*
X87260936Y-105808881D01*
X87360826Y-106036606D01*
X87496833Y-106244782D01*
X87496836Y-106244785D01*
X87665256Y-106427738D01*
X87861491Y-106580474D01*
X88080190Y-106698828D01*
X88147710Y-106722007D01*
X88253188Y-106758219D01*
X88310203Y-106798605D01*
X88336334Y-106863404D01*
X88323282Y-106932044D01*
X88275194Y-106982732D01*
X88212925Y-106999500D01*
X88149500Y-106999500D01*
X87953379Y-107014196D01*
X87953374Y-107014197D01*
X87697597Y-107072576D01*
X87697578Y-107072582D01*
X87453356Y-107168432D01*
X87226143Y-107299614D01*
X87021014Y-107463198D01*
X86842567Y-107655520D01*
X86694768Y-107872302D01*
X86694767Y-107872303D01*
X86580938Y-108108673D01*
X86503606Y-108359376D01*
X86503605Y-108359381D01*
X86503604Y-108359385D01*
X86494427Y-108420271D01*
X86464500Y-108618812D01*
X86464500Y-108881187D01*
X86484794Y-109015823D01*
X86503604Y-109140615D01*
X86503605Y-109140617D01*
X86503606Y-109140623D01*
X86580938Y-109391326D01*
X86694767Y-109627696D01*
X86694768Y-109627697D01*
X86694770Y-109627700D01*
X86694772Y-109627704D01*
X86793494Y-109772502D01*
X86842567Y-109844479D01*
X87021014Y-110036801D01*
X87021018Y-110036804D01*
X87021019Y-110036805D01*
X87226143Y-110200386D01*
X87453357Y-110331568D01*
X87697584Y-110427420D01*
X87953370Y-110485802D01*
X87953376Y-110485802D01*
X87953379Y-110485803D01*
X88149500Y-110500500D01*
X88149506Y-110500500D01*
X88280500Y-110500500D01*
X88476620Y-110485803D01*
X88476622Y-110485802D01*
X88476630Y-110485802D01*
X88732416Y-110427420D01*
X88976643Y-110331568D01*
X89203857Y-110200386D01*
X89408981Y-110036805D01*
X89587433Y-109844479D01*
X89735228Y-109627704D01*
X89849063Y-109391323D01*
X89926396Y-109140615D01*
X89965500Y-108881182D01*
X89965500Y-108618818D01*
X89926396Y-108359385D01*
X89849063Y-108108677D01*
X89826345Y-108061502D01*
X89735232Y-107872303D01*
X89735231Y-107872302D01*
X89735230Y-107872301D01*
X89735228Y-107872296D01*
X89587433Y-107655521D01*
X89577441Y-107644753D01*
X89408985Y-107463198D01*
X89369533Y-107431736D01*
X89203857Y-107299614D01*
X88976643Y-107168432D01*
X88732416Y-107072580D01*
X88732411Y-107072578D01*
X88732402Y-107072576D01*
X88700921Y-107065391D01*
X88639942Y-107031283D01*
X88607084Y-106969621D01*
X88612779Y-106899984D01*
X88655219Y-106844480D01*
X88720929Y-106820732D01*
X88728513Y-106820500D01*
X88809335Y-106820500D01*
X89054614Y-106779571D01*
X89289810Y-106698828D01*
X89508509Y-106580474D01*
X89704744Y-106427738D01*
X89873164Y-106244785D01*
X90009173Y-106036607D01*
X90109063Y-105808881D01*
X90170108Y-105567821D01*
X90171899Y-105546210D01*
X90190643Y-105320005D01*
X90190643Y-105319994D01*
X90170109Y-105072187D01*
X90170107Y-105072175D01*
X90109063Y-104831118D01*
X90009173Y-104603393D01*
X89873166Y-104395217D01*
X89851557Y-104371744D01*
X89704744Y-104212262D01*
X89621991Y-104147852D01*
X89581179Y-104091143D01*
X89577504Y-104021370D01*
X89612136Y-103960687D01*
X89621985Y-103952151D01*
X89704744Y-103887738D01*
X89873164Y-103704785D01*
X90009173Y-103496607D01*
X90109063Y-103268881D01*
X90170108Y-103027821D01*
X90170109Y-103027812D01*
X90190643Y-102780005D01*
X90190643Y-102779994D01*
X90170109Y-102532187D01*
X90170107Y-102532175D01*
X90109063Y-102291118D01*
X90009173Y-102063393D01*
X89873166Y-101855217D01*
X89846901Y-101826686D01*
X89704744Y-101672262D01*
X89621991Y-101607852D01*
X89581179Y-101551143D01*
X89577504Y-101481370D01*
X89612136Y-101420687D01*
X89621985Y-101412151D01*
X89704744Y-101347738D01*
X89873164Y-101164785D01*
X90009173Y-100956607D01*
X90109063Y-100728881D01*
X90170108Y-100487821D01*
X90173966Y-100441261D01*
X90190643Y-100240005D01*
X90190643Y-100239994D01*
X90170109Y-99992187D01*
X90170107Y-99992175D01*
X90109063Y-99751118D01*
X90009173Y-99523393D01*
X89873166Y-99315217D01*
X89851557Y-99291744D01*
X89704744Y-99132262D01*
X89621991Y-99067852D01*
X89581179Y-99011143D01*
X89577504Y-98941370D01*
X89612136Y-98880687D01*
X89621985Y-98872151D01*
X89704744Y-98807738D01*
X89873164Y-98624785D01*
X90009173Y-98416607D01*
X90109063Y-98188881D01*
X90170108Y-97947821D01*
X90190643Y-97700000D01*
X90173257Y-97490185D01*
X90170109Y-97452187D01*
X90170107Y-97452175D01*
X90109063Y-97211118D01*
X90009173Y-96983393D01*
X89873166Y-96775217D01*
X89851557Y-96751744D01*
X89704744Y-96592262D01*
X89621991Y-96527852D01*
X89581179Y-96471143D01*
X89577504Y-96401370D01*
X89612136Y-96340687D01*
X89621985Y-96332151D01*
X89704744Y-96267738D01*
X89873164Y-96084785D01*
X90009173Y-95876607D01*
X90109063Y-95648881D01*
X90170108Y-95407821D01*
X90190643Y-95160000D01*
X90170108Y-94912179D01*
X90109063Y-94671119D01*
X90009173Y-94443393D01*
X89873166Y-94235217D01*
X89851557Y-94211744D01*
X89704744Y-94052262D01*
X89621991Y-93987852D01*
X89581179Y-93931143D01*
X89577504Y-93861370D01*
X89612136Y-93800687D01*
X89621985Y-93792151D01*
X89704744Y-93727738D01*
X89873164Y-93544785D01*
X90009173Y-93336607D01*
X90109063Y-93108881D01*
X90170108Y-92867821D01*
X90190643Y-92620000D01*
X90170108Y-92372179D01*
X90109063Y-92131119D01*
X90009173Y-91903393D01*
X89873166Y-91695217D01*
X89851557Y-91671744D01*
X89704744Y-91512262D01*
X89621991Y-91447852D01*
X89581179Y-91391143D01*
X89577504Y-91321370D01*
X89612136Y-91260687D01*
X89621985Y-91252151D01*
X89704744Y-91187738D01*
X89873164Y-91004785D01*
X90009173Y-90796607D01*
X90109063Y-90568881D01*
X90109065Y-90568869D01*
X90110731Y-90564023D01*
X90112757Y-90564718D01*
X90143632Y-90512385D01*
X90206032Y-90480953D01*
X90275520Y-90488247D01*
X90316036Y-90515246D01*
X96984372Y-97183582D01*
X97042674Y-97244917D01*
X97090414Y-97278145D01*
X97094161Y-97280970D01*
X97115531Y-97298395D01*
X97139244Y-97317731D01*
X97139247Y-97317733D01*
X97167995Y-97332749D01*
X97174716Y-97336821D01*
X97193046Y-97349578D01*
X97201342Y-97355353D01*
X97254800Y-97378293D01*
X97259047Y-97380311D01*
X97310594Y-97407237D01*
X97341781Y-97416160D01*
X97349169Y-97418790D01*
X97378988Y-97431587D01*
X97435970Y-97443296D01*
X97440516Y-97444411D01*
X97496449Y-97460417D01*
X97528803Y-97462879D01*
X97536562Y-97463968D01*
X97568344Y-97470500D01*
X97626504Y-97470500D01*
X97631210Y-97470678D01*
X97654623Y-97472461D01*
X97689201Y-97475095D01*
X97689201Y-97475094D01*
X97689203Y-97475095D01*
X97721385Y-97470996D01*
X97729215Y-97470500D01*
X111314928Y-97470500D01*
X111381967Y-97490185D01*
X111402609Y-97506819D01*
X113313181Y-99417391D01*
X113346666Y-99478714D01*
X113349500Y-99505072D01*
X113349500Y-100525500D01*
X113329815Y-100592539D01*
X113277011Y-100638294D01*
X113225500Y-100649500D01*
X108890049Y-100649500D01*
X108823010Y-100629815D01*
X108802368Y-100613181D01*
X108789141Y-100599954D01*
X108602734Y-100469432D01*
X108602732Y-100469431D01*
X108396497Y-100373261D01*
X108396488Y-100373258D01*
X108176697Y-100314366D01*
X108176693Y-100314365D01*
X108176692Y-100314365D01*
X108176691Y-100314364D01*
X108176686Y-100314364D01*
X107950002Y-100294532D01*
X107949998Y-100294532D01*
X107723313Y-100314364D01*
X107723302Y-100314366D01*
X107503511Y-100373258D01*
X107503502Y-100373261D01*
X107297267Y-100469431D01*
X107297265Y-100469432D01*
X107110858Y-100599954D01*
X106949954Y-100760858D01*
X106819432Y-100947265D01*
X106819431Y-100947267D01*
X106723261Y-101153502D01*
X106723258Y-101153511D01*
X106664366Y-101373302D01*
X106664364Y-101373313D01*
X106644532Y-101599998D01*
X106644532Y-101600001D01*
X106664364Y-101826686D01*
X106664366Y-101826697D01*
X106723258Y-102046488D01*
X106723261Y-102046497D01*
X106819431Y-102252732D01*
X106819432Y-102252734D01*
X106949954Y-102439141D01*
X107110858Y-102600045D01*
X107110861Y-102600047D01*
X107297266Y-102730568D01*
X107503504Y-102826739D01*
X107723308Y-102885635D01*
X107885230Y-102899801D01*
X107949998Y-102905468D01*
X107950000Y-102905468D01*
X107950002Y-102905468D01*
X108006673Y-102900509D01*
X108176692Y-102885635D01*
X108396496Y-102826739D01*
X108602734Y-102730568D01*
X108789139Y-102600047D01*
X108789141Y-102600045D01*
X108802368Y-102586819D01*
X108863691Y-102553334D01*
X108890049Y-102550500D01*
X114203344Y-102550500D01*
X114274332Y-102550500D01*
X114277472Y-102550580D01*
X114302918Y-102551869D01*
X114348390Y-102554176D01*
X114359948Y-102552405D01*
X114363052Y-102551930D01*
X114381828Y-102550500D01*
X145035586Y-102550500D01*
X145102625Y-102570185D01*
X145147784Y-102621703D01*
X145212265Y-102758732D01*
X145212271Y-102758743D01*
X145374111Y-103013763D01*
X145566652Y-103246505D01*
X145786836Y-103453272D01*
X145786846Y-103453280D01*
X146031193Y-103630808D01*
X146031198Y-103630810D01*
X146031205Y-103630816D01*
X146295896Y-103776332D01*
X146295901Y-103776334D01*
X146295903Y-103776335D01*
X146295904Y-103776336D01*
X146576734Y-103887524D01*
X146576737Y-103887525D01*
X146674259Y-103912564D01*
X146869302Y-103962642D01*
X147016039Y-103981179D01*
X147168963Y-104000499D01*
X147168969Y-104000499D01*
X147168973Y-104000500D01*
X147168975Y-104000500D01*
X147471025Y-104000500D01*
X147471027Y-104000500D01*
X147471032Y-104000499D01*
X147471036Y-104000499D01*
X147550591Y-103990448D01*
X147770698Y-103962642D01*
X148063262Y-103887525D01*
X148063265Y-103887524D01*
X148344095Y-103776336D01*
X148344096Y-103776335D01*
X148344094Y-103776335D01*
X148344104Y-103776332D01*
X148608795Y-103630816D01*
X148853162Y-103453274D01*
X149073349Y-103246504D01*
X149265885Y-103013768D01*
X149427733Y-102758736D01*
X149556341Y-102485430D01*
X149649681Y-102198160D01*
X149706280Y-101901457D01*
X149709189Y-101855217D01*
X149725246Y-101600005D01*
X149725246Y-101599994D01*
X149706281Y-101298553D01*
X149706280Y-101298546D01*
X149706280Y-101298543D01*
X149649681Y-101001840D01*
X149556341Y-100714570D01*
X149525721Y-100649500D01*
X149427734Y-100441267D01*
X149427733Y-100441264D01*
X149334614Y-100294532D01*
X149265888Y-100186236D01*
X149073347Y-99953494D01*
X148853163Y-99746727D01*
X148853153Y-99746719D01*
X148608806Y-99569191D01*
X148608799Y-99569186D01*
X148608795Y-99569184D01*
X148344104Y-99423668D01*
X148344101Y-99423666D01*
X148344096Y-99423664D01*
X148344095Y-99423663D01*
X148063265Y-99312475D01*
X148063262Y-99312474D01*
X147770695Y-99237357D01*
X147471036Y-99199500D01*
X147471027Y-99199500D01*
X147168973Y-99199500D01*
X147168963Y-99199500D01*
X146869304Y-99237357D01*
X146576737Y-99312474D01*
X146576734Y-99312475D01*
X146295904Y-99423663D01*
X146295903Y-99423664D01*
X146031205Y-99569184D01*
X146031193Y-99569191D01*
X145786846Y-99746719D01*
X145786836Y-99746727D01*
X145566652Y-99953494D01*
X145374111Y-100186236D01*
X145212271Y-100441256D01*
X145212265Y-100441267D01*
X145147784Y-100578297D01*
X145101429Y-100630575D01*
X145035586Y-100649500D01*
X115374500Y-100649500D01*
X115307461Y-100629815D01*
X115261706Y-100577011D01*
X115250500Y-100525500D01*
X115250500Y-99072044D01*
X115252644Y-98987457D01*
X115252643Y-98987456D01*
X115252644Y-98987453D01*
X115242382Y-98930204D01*
X115241729Y-98925537D01*
X115235845Y-98867680D01*
X115235844Y-98867674D01*
X115226132Y-98836723D01*
X115224262Y-98829105D01*
X115218539Y-98797172D01*
X115196963Y-98743157D01*
X115195382Y-98738716D01*
X115177975Y-98683234D01*
X115177974Y-98683233D01*
X115177974Y-98683232D01*
X115162233Y-98654873D01*
X115158863Y-98647775D01*
X115151202Y-98628597D01*
X115146830Y-98617651D01*
X115114822Y-98569085D01*
X115112382Y-98565056D01*
X115084159Y-98514209D01*
X115063030Y-98489597D01*
X115058304Y-98483330D01*
X115040451Y-98456241D01*
X115040450Y-98456239D01*
X115019891Y-98435681D01*
X114999319Y-98415109D01*
X114996128Y-98411666D01*
X114958240Y-98367532D01*
X114932590Y-98347677D01*
X114926696Y-98342486D01*
X112440627Y-95856417D01*
X112382324Y-95795082D01*
X112382320Y-95795079D01*
X112334567Y-95761841D01*
X112330833Y-95759025D01*
X112285751Y-95722266D01*
X112285747Y-95722264D01*
X112285746Y-95722263D01*
X112285745Y-95722262D01*
X112256997Y-95707246D01*
X112250277Y-95703174D01*
X112223659Y-95684647D01*
X112170209Y-95661710D01*
X112165952Y-95659688D01*
X112114409Y-95632764D01*
X112114407Y-95632763D01*
X112114406Y-95632763D01*
X112097689Y-95627979D01*
X112083221Y-95623839D01*
X112075822Y-95621205D01*
X112046011Y-95608412D01*
X112046012Y-95608412D01*
X111989038Y-95596703D01*
X111984463Y-95595580D01*
X111928556Y-95579583D01*
X111928545Y-95579582D01*
X111896208Y-95577120D01*
X111888428Y-95576029D01*
X111856657Y-95569500D01*
X111856656Y-95569500D01*
X111798497Y-95569500D01*
X111793790Y-95569321D01*
X111788850Y-95568944D01*
X111735798Y-95564904D01*
X111718176Y-95567149D01*
X111703614Y-95569003D01*
X111695785Y-95569500D01*
X98110072Y-95569500D01*
X98043033Y-95549815D01*
X98022391Y-95533181D01*
X90218930Y-87729720D01*
X90185445Y-87668397D01*
X90183035Y-87631802D01*
X90190643Y-87540000D01*
X90170108Y-87292179D01*
X90109063Y-87051119D01*
X90009173Y-86823393D01*
X89873166Y-86615217D01*
X89851557Y-86591744D01*
X89704744Y-86432262D01*
X89621991Y-86367852D01*
X89581179Y-86311143D01*
X89577504Y-86241370D01*
X89612136Y-86180687D01*
X89621985Y-86172151D01*
X89704744Y-86107738D01*
X89744177Y-86064902D01*
X89817718Y-85985017D01*
X89877605Y-85949026D01*
X89908947Y-85945000D01*
X94058037Y-85945000D01*
X94142121Y-85947131D01*
X94142121Y-85947130D01*
X94142127Y-85947131D01*
X94199045Y-85936928D01*
X94203683Y-85936277D01*
X94261208Y-85930429D01*
X94291966Y-85920778D01*
X94299590Y-85918907D01*
X94331306Y-85913223D01*
X94331310Y-85913221D01*
X94331312Y-85913221D01*
X94352797Y-85904638D01*
X94384999Y-85891775D01*
X94389416Y-85890203D01*
X94444588Y-85872893D01*
X94472777Y-85857246D01*
X94479849Y-85853887D01*
X94509788Y-85841929D01*
X94558059Y-85810115D01*
X94562085Y-85807676D01*
X94612632Y-85779621D01*
X94637084Y-85758628D01*
X94643357Y-85753900D01*
X94670265Y-85736167D01*
X94711170Y-85695260D01*
X94714575Y-85692104D01*
X94758461Y-85654431D01*
X94778191Y-85628940D01*
X94783362Y-85623068D01*
X95252020Y-85154410D01*
X95313341Y-85120927D01*
X95328882Y-85118566D01*
X95476692Y-85105635D01*
X95696496Y-85046739D01*
X95902734Y-84950568D01*
X96089139Y-84820047D01*
X96250047Y-84659139D01*
X96380568Y-84472734D01*
X96476739Y-84266496D01*
X96535635Y-84046692D01*
X96555468Y-83820001D01*
X101564532Y-83820001D01*
X101584364Y-84046686D01*
X101584366Y-84046697D01*
X101643258Y-84266488D01*
X101643261Y-84266497D01*
X101739431Y-84472732D01*
X101739432Y-84472734D01*
X101869954Y-84659141D01*
X102030858Y-84820045D01*
X102030861Y-84820047D01*
X102217266Y-84950568D01*
X102423504Y-85046739D01*
X102643308Y-85105635D01*
X102805230Y-85119801D01*
X102869998Y-85125468D01*
X102870000Y-85125468D01*
X102870002Y-85125468D01*
X102926673Y-85120509D01*
X103096692Y-85105635D01*
X103316496Y-85046739D01*
X103522734Y-84950568D01*
X103709139Y-84820047D01*
X103709141Y-84820045D01*
X103722368Y-84806819D01*
X103783691Y-84773334D01*
X103810049Y-84770500D01*
X106247937Y-84770500D01*
X106332539Y-84772644D01*
X106332539Y-84772643D01*
X106332546Y-84772644D01*
X106389818Y-84762378D01*
X106394432Y-84761731D01*
X106452321Y-84755845D01*
X106483286Y-84746128D01*
X106490886Y-84744263D01*
X106522828Y-84738539D01*
X106576830Y-84716967D01*
X106581267Y-84715387D01*
X106585957Y-84713915D01*
X106636768Y-84697974D01*
X106665134Y-84682228D01*
X106672214Y-84678866D01*
X106702348Y-84666830D01*
X106750917Y-84634818D01*
X106754926Y-84632389D01*
X106805791Y-84604159D01*
X106830408Y-84583023D01*
X106836672Y-84578301D01*
X106863759Y-84560451D01*
X106904906Y-84519302D01*
X106908325Y-84516134D01*
X106952468Y-84478240D01*
X106972328Y-84452581D01*
X106977499Y-84446709D01*
X112519319Y-78904890D01*
X112580642Y-78871405D01*
X112650334Y-78876389D01*
X112706267Y-78918261D01*
X112730684Y-78983725D01*
X112731000Y-78992571D01*
X112731000Y-79436844D01*
X112737401Y-79496372D01*
X112737403Y-79496379D01*
X112787645Y-79631086D01*
X112787649Y-79631093D01*
X112873809Y-79746187D01*
X112873812Y-79746190D01*
X112988906Y-79832350D01*
X112988913Y-79832354D01*
X113123620Y-79882596D01*
X113123627Y-79882598D01*
X113183155Y-79888999D01*
X113183172Y-79889000D01*
X113630000Y-79889000D01*
X113630000Y-79048614D01*
X113644931Y-79063545D01*
X113756417Y-79120350D01*
X113848912Y-79135000D01*
X113911088Y-79135000D01*
X114003583Y-79120350D01*
X114115069Y-79063545D01*
X114130000Y-79048614D01*
X114130000Y-79889000D01*
X114576828Y-79889000D01*
X114576844Y-79888999D01*
X114636372Y-79882598D01*
X114636379Y-79882596D01*
X114771086Y-79832354D01*
X114771093Y-79832350D01*
X114886187Y-79746190D01*
X114886190Y-79746187D01*
X114972350Y-79631093D01*
X114972354Y-79631086D01*
X115022596Y-79496379D01*
X115022598Y-79496372D01*
X115028999Y-79436844D01*
X115029000Y-79436827D01*
X115029000Y-78990000D01*
X114188614Y-78990000D01*
X114203545Y-78975069D01*
X114260350Y-78863583D01*
X114279924Y-78740000D01*
X114260350Y-78616417D01*
X114203545Y-78504931D01*
X114188614Y-78490000D01*
X115029000Y-78490000D01*
X115029000Y-78043172D01*
X115028999Y-78043155D01*
X115022598Y-77983627D01*
X115022596Y-77983620D01*
X114972354Y-77848913D01*
X114972350Y-77848906D01*
X114886190Y-77733812D01*
X114886187Y-77733809D01*
X114771093Y-77647649D01*
X114771086Y-77647645D01*
X114636379Y-77597403D01*
X114636372Y-77597401D01*
X114576844Y-77591000D01*
X114132571Y-77591000D01*
X114065532Y-77571315D01*
X114019777Y-77518511D01*
X114009833Y-77449353D01*
X114038858Y-77385797D01*
X114044888Y-77379321D01*
X114067832Y-77356376D01*
X114129152Y-77322891D01*
X114132686Y-77322176D01*
X114195923Y-77310356D01*
X114394572Y-77233399D01*
X114575696Y-77121251D01*
X114733130Y-76977731D01*
X114861512Y-76807726D01*
X114956469Y-76617026D01*
X115014769Y-76412125D01*
X115014769Y-76412124D01*
X115016338Y-76406610D01*
X115017732Y-76407006D01*
X115046216Y-76350968D01*
X115106523Y-76315686D01*
X115176331Y-76318610D01*
X115224130Y-76348340D01*
X119663181Y-80787391D01*
X119696666Y-80848714D01*
X119699500Y-80875072D01*
X119699500Y-82879951D01*
X119679815Y-82946990D01*
X119663181Y-82967632D01*
X119649954Y-82980858D01*
X119519432Y-83167265D01*
X119519431Y-83167267D01*
X119423261Y-83373502D01*
X119423258Y-83373511D01*
X119364366Y-83593302D01*
X119364364Y-83593313D01*
X119344532Y-83819998D01*
X119344532Y-83820001D01*
X119364364Y-84046686D01*
X119364366Y-84046697D01*
X119423258Y-84266488D01*
X119423261Y-84266497D01*
X119519431Y-84472732D01*
X119519432Y-84472734D01*
X119649954Y-84659141D01*
X119810858Y-84820045D01*
X119810861Y-84820047D01*
X119997266Y-84950568D01*
X120203504Y-85046739D01*
X120423308Y-85105635D01*
X120585230Y-85119801D01*
X120649998Y-85125468D01*
X120650000Y-85125468D01*
X120650002Y-85125468D01*
X120706673Y-85120509D01*
X120876692Y-85105635D01*
X121096496Y-85046739D01*
X121302734Y-84950568D01*
X121489139Y-84820047D01*
X121650047Y-84659139D01*
X121780568Y-84472734D01*
X121876739Y-84266496D01*
X121935635Y-84046692D01*
X121955468Y-83820001D01*
X126964532Y-83820001D01*
X126984364Y-84046686D01*
X126984366Y-84046697D01*
X127043258Y-84266488D01*
X127043261Y-84266497D01*
X127139431Y-84472732D01*
X127139432Y-84472734D01*
X127269954Y-84659141D01*
X127430858Y-84820045D01*
X127430861Y-84820047D01*
X127617266Y-84950568D01*
X127823504Y-85046739D01*
X128043308Y-85105635D01*
X128205230Y-85119801D01*
X128269998Y-85125468D01*
X128270000Y-85125468D01*
X128270002Y-85125468D01*
X128326673Y-85120509D01*
X128496692Y-85105635D01*
X128716496Y-85046739D01*
X128922734Y-84950568D01*
X129109139Y-84820047D01*
X129109141Y-84820045D01*
X129122368Y-84806819D01*
X129183691Y-84773334D01*
X129210049Y-84770500D01*
X132067937Y-84770500D01*
X132152539Y-84772644D01*
X132152539Y-84772643D01*
X132152546Y-84772644D01*
X132209818Y-84762378D01*
X132214432Y-84761731D01*
X132272321Y-84755845D01*
X132303286Y-84746128D01*
X132310886Y-84744263D01*
X132342828Y-84738539D01*
X132396830Y-84716967D01*
X132401267Y-84715387D01*
X132405957Y-84713915D01*
X132456768Y-84697974D01*
X132485134Y-84682228D01*
X132492214Y-84678866D01*
X132522348Y-84666830D01*
X132570917Y-84634818D01*
X132574926Y-84632389D01*
X132625791Y-84604159D01*
X132650408Y-84583023D01*
X132656672Y-84578301D01*
X132683759Y-84560451D01*
X132724906Y-84519302D01*
X132728325Y-84516134D01*
X132772468Y-84478240D01*
X132792328Y-84452581D01*
X132797499Y-84446709D01*
X137823582Y-79420627D01*
X137884919Y-79362323D01*
X137918161Y-79314562D01*
X137920962Y-79310846D01*
X137957734Y-79265751D01*
X137972758Y-79236986D01*
X137976819Y-79230283D01*
X137995353Y-79203658D01*
X138018304Y-79150173D01*
X138020295Y-79145981D01*
X138047237Y-79094406D01*
X138056163Y-79063209D01*
X138058788Y-79055834D01*
X138071587Y-79026012D01*
X138083299Y-78969012D01*
X138084412Y-78964484D01*
X138100417Y-78908552D01*
X138102880Y-78876195D01*
X138103967Y-78868437D01*
X138110500Y-78836656D01*
X138110500Y-78778496D01*
X138110679Y-78773787D01*
X138115095Y-78715797D01*
X138111955Y-78691143D01*
X138110996Y-78683615D01*
X138110500Y-78675784D01*
X138110500Y-73389499D01*
X138130185Y-73322460D01*
X138182989Y-73276705D01*
X138234500Y-73265499D01*
X138482871Y-73265499D01*
X138482872Y-73265499D01*
X138542483Y-73259091D01*
X138677331Y-73208796D01*
X138792546Y-73122546D01*
X138878796Y-73007331D01*
X138929091Y-72872483D01*
X138935500Y-72812873D01*
X138935499Y-70167128D01*
X138929091Y-70107517D01*
X138891903Y-70007812D01*
X138878797Y-69972671D01*
X138878793Y-69972664D01*
X138792547Y-69857455D01*
X138792544Y-69857452D01*
X138677335Y-69771206D01*
X138677328Y-69771202D01*
X138542482Y-69720908D01*
X138542483Y-69720908D01*
X138482883Y-69714501D01*
X138482881Y-69714500D01*
X138482873Y-69714500D01*
X138482864Y-69714500D01*
X135837129Y-69714500D01*
X135837123Y-69714501D01*
X135777516Y-69720908D01*
X135642671Y-69771202D01*
X135642664Y-69771206D01*
X135527455Y-69857452D01*
X135527452Y-69857455D01*
X135441206Y-69972664D01*
X135441202Y-69972671D01*
X135390908Y-70107517D01*
X135384501Y-70167116D01*
X135384501Y-70167123D01*
X135384500Y-70167135D01*
X135384500Y-72812870D01*
X135384501Y-72812876D01*
X135390908Y-72872483D01*
X135441202Y-73007328D01*
X135441206Y-73007335D01*
X135527452Y-73122544D01*
X135527455Y-73122547D01*
X135642664Y-73208793D01*
X135642671Y-73208797D01*
X135687618Y-73225561D01*
X135777517Y-73259091D01*
X135837127Y-73265500D01*
X136085501Y-73265499D01*
X136152539Y-73285183D01*
X136198294Y-73337987D01*
X136209500Y-73389499D01*
X136209500Y-78294928D01*
X136189815Y-78361967D01*
X136173181Y-78382609D01*
X131722609Y-82833181D01*
X131661286Y-82866666D01*
X131634928Y-82869500D01*
X129210049Y-82869500D01*
X129143010Y-82849815D01*
X129122368Y-82833181D01*
X129109141Y-82819954D01*
X128922734Y-82689432D01*
X128922732Y-82689431D01*
X128716497Y-82593261D01*
X128716488Y-82593258D01*
X128496697Y-82534366D01*
X128496693Y-82534365D01*
X128496692Y-82534365D01*
X128496691Y-82534364D01*
X128496686Y-82534364D01*
X128270002Y-82514532D01*
X128269998Y-82514532D01*
X128043313Y-82534364D01*
X128043302Y-82534366D01*
X127823511Y-82593258D01*
X127823502Y-82593261D01*
X127617267Y-82689431D01*
X127617265Y-82689432D01*
X127430858Y-82819954D01*
X127269954Y-82980858D01*
X127139432Y-83167265D01*
X127139431Y-83167267D01*
X127043261Y-83373502D01*
X127043258Y-83373511D01*
X126984366Y-83593302D01*
X126984364Y-83593313D01*
X126964532Y-83819998D01*
X126964532Y-83820001D01*
X121955468Y-83820001D01*
X121955468Y-83820000D01*
X121954258Y-83806175D01*
X121935635Y-83593313D01*
X121935635Y-83593311D01*
X121935635Y-83593308D01*
X121876739Y-83373504D01*
X121780568Y-83167266D01*
X121650047Y-82980861D01*
X121650045Y-82980858D01*
X121636819Y-82967632D01*
X121603334Y-82906309D01*
X121600500Y-82879951D01*
X121600500Y-80442062D01*
X121602644Y-80357456D01*
X121602644Y-80357454D01*
X121592380Y-80300188D01*
X121591729Y-80295539D01*
X121585845Y-80237678D01*
X121576134Y-80206729D01*
X121574264Y-80199111D01*
X121568540Y-80167172D01*
X121546960Y-80113147D01*
X121545379Y-80108707D01*
X121527974Y-80053232D01*
X121512237Y-80024879D01*
X121508866Y-80017782D01*
X121496831Y-79987653D01*
X121496831Y-79987652D01*
X121464818Y-79939079D01*
X121462384Y-79935063D01*
X121434159Y-79884209D01*
X121429391Y-79878656D01*
X121413027Y-79859593D01*
X121408296Y-79853319D01*
X121390451Y-79826241D01*
X121349332Y-79785122D01*
X121346128Y-79781666D01*
X121308240Y-79737532D01*
X121282590Y-79717677D01*
X121276696Y-79712486D01*
X115038607Y-73474397D01*
X115007023Y-73420652D01*
X114956469Y-73242974D01*
X114939450Y-73208796D01*
X114861515Y-73052280D01*
X114861514Y-73052279D01*
X114861512Y-73052274D01*
X114855543Y-73044370D01*
X114830854Y-72979010D01*
X114830500Y-72969647D01*
X114830500Y-66036563D01*
X114850185Y-65969524D01*
X114902093Y-65924182D01*
X114952734Y-65900568D01*
X115139139Y-65770047D01*
X115300047Y-65609139D01*
X115430568Y-65422734D01*
X115526739Y-65216496D01*
X115585635Y-64996692D01*
X115605468Y-64770000D01*
X115585635Y-64543308D01*
X115526739Y-64323504D01*
X115430568Y-64117266D01*
X115300047Y-63930861D01*
X115300045Y-63930858D01*
X115139141Y-63769954D01*
X114952734Y-63639432D01*
X114952732Y-63639431D01*
X114746497Y-63543261D01*
X114746488Y-63543258D01*
X114526697Y-63484366D01*
X114526693Y-63484365D01*
X114526692Y-63484365D01*
X114526691Y-63484364D01*
X114526686Y-63484364D01*
X114300002Y-63464532D01*
X114299998Y-63464532D01*
X114073313Y-63484364D01*
X114073302Y-63484366D01*
X113853511Y-63543258D01*
X113853502Y-63543261D01*
X113647267Y-63639431D01*
X113647265Y-63639432D01*
X113460858Y-63769954D01*
X113299954Y-63930858D01*
X113169432Y-64117265D01*
X113169431Y-64117267D01*
X113073261Y-64323502D01*
X113073258Y-64323511D01*
X113014366Y-64543302D01*
X113014364Y-64543313D01*
X112994532Y-64769998D01*
X112994532Y-64770005D01*
X112996512Y-64792643D01*
X112992200Y-64837559D01*
X112983840Y-64866773D01*
X112981206Y-64874173D01*
X112968412Y-64903989D01*
X112956703Y-64960960D01*
X112955580Y-64965534D01*
X112939583Y-65021448D01*
X112939581Y-65021454D01*
X112937120Y-65053791D01*
X112936029Y-65061572D01*
X112929500Y-65093343D01*
X112929500Y-65151502D01*
X112929321Y-65156211D01*
X112924904Y-65214201D01*
X112925197Y-65216497D01*
X112929003Y-65246385D01*
X112929500Y-65254214D01*
X112929500Y-72969647D01*
X112909815Y-73036686D01*
X112904456Y-73044371D01*
X112898491Y-73052269D01*
X112898484Y-73052280D01*
X112803535Y-73242963D01*
X112803530Y-73242976D01*
X112745230Y-73447875D01*
X112725575Y-73659999D01*
X112725575Y-73660000D01*
X112745230Y-73872124D01*
X112803530Y-74077023D01*
X112803535Y-74077036D01*
X112898488Y-74267726D01*
X113026871Y-74437733D01*
X113162306Y-74561197D01*
X113184304Y-74581251D01*
X113365428Y-74693399D01*
X113564077Y-74770356D01*
X113627271Y-74782168D01*
X113689551Y-74813836D01*
X113692166Y-74816376D01*
X113735880Y-74860090D01*
X113769365Y-74921413D01*
X113764381Y-74991105D01*
X113722509Y-75047038D01*
X113670983Y-75069660D01*
X113564077Y-75089644D01*
X113564074Y-75089644D01*
X113564074Y-75089645D01*
X113365428Y-75166600D01*
X113365427Y-75166601D01*
X113184302Y-75278750D01*
X113026871Y-75422266D01*
X112898488Y-75592273D01*
X112803535Y-75782963D01*
X112803530Y-75782976D01*
X112752976Y-75960651D01*
X112721391Y-76014397D01*
X105902609Y-82833181D01*
X105841286Y-82866666D01*
X105814928Y-82869500D01*
X103810049Y-82869500D01*
X103743010Y-82849815D01*
X103722368Y-82833181D01*
X103709141Y-82819954D01*
X103522734Y-82689432D01*
X103522732Y-82689431D01*
X103316497Y-82593261D01*
X103316488Y-82593258D01*
X103096697Y-82534366D01*
X103096693Y-82534365D01*
X103096692Y-82534365D01*
X103096691Y-82534364D01*
X103096686Y-82534364D01*
X102870002Y-82514532D01*
X102869998Y-82514532D01*
X102643313Y-82534364D01*
X102643302Y-82534366D01*
X102423511Y-82593258D01*
X102423502Y-82593261D01*
X102217267Y-82689431D01*
X102217265Y-82689432D01*
X102030858Y-82819954D01*
X101869954Y-82980858D01*
X101739432Y-83167265D01*
X101739431Y-83167267D01*
X101643261Y-83373502D01*
X101643258Y-83373511D01*
X101584366Y-83593302D01*
X101584364Y-83593313D01*
X101564532Y-83819998D01*
X101564532Y-83820001D01*
X96555468Y-83820001D01*
X96555468Y-83820000D01*
X96554258Y-83806175D01*
X96535635Y-83593313D01*
X96535635Y-83593311D01*
X96535635Y-83593308D01*
X96476739Y-83373504D01*
X96380568Y-83167266D01*
X96250047Y-82980861D01*
X96250045Y-82980858D01*
X96089141Y-82819954D01*
X95902734Y-82689432D01*
X95902732Y-82689431D01*
X95696497Y-82593261D01*
X95696488Y-82593258D01*
X95476697Y-82534366D01*
X95476693Y-82534365D01*
X95476692Y-82534365D01*
X95476691Y-82534364D01*
X95476686Y-82534364D01*
X95250002Y-82514532D01*
X95249998Y-82514532D01*
X95023313Y-82534364D01*
X95023302Y-82534366D01*
X94803511Y-82593258D01*
X94803502Y-82593261D01*
X94597267Y-82689431D01*
X94597265Y-82689432D01*
X94410858Y-82819954D01*
X94249954Y-82980858D01*
X94119432Y-83167265D01*
X94119431Y-83167267D01*
X94023261Y-83373502D01*
X94023258Y-83373511D01*
X93964366Y-83593302D01*
X93964364Y-83593311D01*
X93951433Y-83741107D01*
X93925980Y-83806175D01*
X93915587Y-83817979D01*
X93714888Y-84018681D01*
X93653565Y-84052166D01*
X93627206Y-84055000D01*
X89908947Y-84055000D01*
X89841908Y-84035315D01*
X89817718Y-84014983D01*
X89704747Y-83892265D01*
X89704744Y-83892262D01*
X89704743Y-83892261D01*
X89621991Y-83827852D01*
X89581179Y-83771143D01*
X89577504Y-83701370D01*
X89612136Y-83640687D01*
X89621985Y-83632151D01*
X89704744Y-83567738D01*
X89873164Y-83384785D01*
X90009173Y-83176607D01*
X90109063Y-82948881D01*
X90170108Y-82707821D01*
X90184481Y-82534364D01*
X90190643Y-82460005D01*
X90190643Y-82459994D01*
X90170109Y-82212187D01*
X90170107Y-82212175D01*
X90109063Y-81971118D01*
X90009173Y-81743393D01*
X89873166Y-81535217D01*
X89851557Y-81511744D01*
X89704744Y-81352262D01*
X89621991Y-81287852D01*
X89581179Y-81231143D01*
X89577504Y-81161370D01*
X89612136Y-81100687D01*
X89621985Y-81092151D01*
X89704744Y-81027738D01*
X89873164Y-80844785D01*
X90009173Y-80636607D01*
X90109063Y-80408881D01*
X90170108Y-80167821D01*
X90170162Y-80167170D01*
X90190643Y-79920005D01*
X90190643Y-79919994D01*
X90170109Y-79672187D01*
X90170107Y-79672175D01*
X90109063Y-79431118D01*
X90009173Y-79203393D01*
X89873166Y-78995217D01*
X89802323Y-78918261D01*
X89704744Y-78812262D01*
X89621991Y-78747852D01*
X89581179Y-78691143D01*
X89577504Y-78621370D01*
X89612136Y-78560687D01*
X89621985Y-78552151D01*
X89704744Y-78487738D01*
X89873164Y-78304785D01*
X90009173Y-78096607D01*
X90109063Y-77868881D01*
X90170108Y-77627821D01*
X90173159Y-77591000D01*
X90190643Y-77380005D01*
X90190643Y-77379994D01*
X90170109Y-77132187D01*
X90170107Y-77132175D01*
X90109063Y-76891118D01*
X90009173Y-76663393D01*
X89873166Y-76455217D01*
X89832275Y-76410798D01*
X89757895Y-76330000D01*
X97333460Y-76330000D01*
X97393911Y-76568716D01*
X97493767Y-76796367D01*
X97629732Y-77004478D01*
X97798092Y-77187364D01*
X97798102Y-77187373D01*
X97994262Y-77340051D01*
X97994271Y-77340057D01*
X98212885Y-77458364D01*
X98212896Y-77458369D01*
X98448007Y-77539083D01*
X98567499Y-77559023D01*
X98567500Y-77559022D01*
X98567500Y-76515501D01*
X98675185Y-76564680D01*
X98781737Y-76580000D01*
X98853263Y-76580000D01*
X98959815Y-76564680D01*
X99067500Y-76515501D01*
X99067500Y-77559023D01*
X99186992Y-77539083D01*
X99422103Y-77458369D01*
X99422114Y-77458364D01*
X99640728Y-77340057D01*
X99640737Y-77340051D01*
X99836897Y-77187373D01*
X99836907Y-77187364D01*
X100005267Y-77004478D01*
X100141232Y-76796367D01*
X100241088Y-76568716D01*
X100301540Y-76330000D01*
X99251186Y-76330000D01*
X99276993Y-76289844D01*
X99317500Y-76151889D01*
X99317500Y-76008111D01*
X99276993Y-75870156D01*
X99251186Y-75830000D01*
X100301540Y-75830000D01*
X100241088Y-75591283D01*
X100141232Y-75363632D01*
X100005267Y-75155521D01*
X99836907Y-74972635D01*
X99836897Y-74972626D01*
X99640737Y-74819948D01*
X99640728Y-74819942D01*
X99422114Y-74701635D01*
X99422103Y-74701630D01*
X99186992Y-74620916D01*
X99067500Y-74600976D01*
X99067500Y-75644498D01*
X98959815Y-75595320D01*
X98853263Y-75580000D01*
X98781737Y-75580000D01*
X98675185Y-75595320D01*
X98567500Y-75644498D01*
X98567500Y-74600976D01*
X98567499Y-74600976D01*
X98448007Y-74620916D01*
X98212896Y-74701630D01*
X98212885Y-74701635D01*
X97994271Y-74819942D01*
X97994262Y-74819948D01*
X97798102Y-74972626D01*
X97798092Y-74972635D01*
X97629732Y-75155521D01*
X97493767Y-75363632D01*
X97393911Y-75591283D01*
X97333460Y-75830000D01*
X98383814Y-75830000D01*
X98358007Y-75870156D01*
X98317500Y-76008111D01*
X98317500Y-76151889D01*
X98358007Y-76289844D01*
X98383814Y-76330000D01*
X97333460Y-76330000D01*
X89757895Y-76330000D01*
X89704744Y-76272262D01*
X89621991Y-76207852D01*
X89581179Y-76151143D01*
X89577504Y-76081370D01*
X89612136Y-76020687D01*
X89621985Y-76012151D01*
X89704744Y-75947738D01*
X89873164Y-75764785D01*
X90009173Y-75556607D01*
X90109063Y-75328881D01*
X90170108Y-75087821D01*
X90173201Y-75050500D01*
X90190643Y-74840005D01*
X90190643Y-74839994D01*
X90170109Y-74592187D01*
X90170107Y-74592175D01*
X90109063Y-74351118D01*
X90009173Y-74123393D01*
X89873166Y-73915217D01*
X89833496Y-73872124D01*
X89704744Y-73732262D01*
X89601253Y-73651712D01*
X89560442Y-73595003D01*
X89553655Y-73546176D01*
X89555056Y-73523609D01*
X88826365Y-72794918D01*
X88830161Y-72794373D01*
X88963562Y-72733451D01*
X89074395Y-72637413D01*
X89153682Y-72514040D01*
X89176132Y-72437580D01*
X89908434Y-73169882D01*
X90008731Y-73016369D01*
X90108587Y-72788717D01*
X90169612Y-72547738D01*
X90169614Y-72547729D01*
X90190141Y-72300005D01*
X90190141Y-72299994D01*
X90169614Y-72052270D01*
X90169612Y-72052261D01*
X90108587Y-71811282D01*
X90008731Y-71583630D01*
X89908434Y-71430116D01*
X89176132Y-72162418D01*
X89153682Y-72085960D01*
X89074395Y-71962587D01*
X88963562Y-71866549D01*
X88830161Y-71805627D01*
X88826366Y-71805081D01*
X89555056Y-71076390D01*
X89553655Y-71053825D01*
X89569147Y-70985694D01*
X89601250Y-70948290D01*
X89704744Y-70867738D01*
X89747541Y-70821248D01*
X89812655Y-70750517D01*
X89872542Y-70714526D01*
X89903884Y-70710500D01*
X90125437Y-70710500D01*
X90210039Y-70712644D01*
X90210039Y-70712643D01*
X90210046Y-70712644D01*
X90267318Y-70702378D01*
X90271932Y-70701731D01*
X90329821Y-70695845D01*
X90360786Y-70686128D01*
X90368386Y-70684263D01*
X90400328Y-70678539D01*
X90454330Y-70656967D01*
X90458767Y-70655387D01*
X90463457Y-70653915D01*
X90514268Y-70637974D01*
X90542634Y-70622228D01*
X90549714Y-70618866D01*
X90579848Y-70606830D01*
X90628417Y-70574818D01*
X90632426Y-70572389D01*
X90683291Y-70544159D01*
X90707908Y-70523023D01*
X90714172Y-70518301D01*
X90741259Y-70500451D01*
X90782406Y-70459302D01*
X90785825Y-70456134D01*
X90829968Y-70418240D01*
X90849828Y-70392581D01*
X90854999Y-70386709D01*
X98624891Y-62616818D01*
X98686214Y-62583333D01*
X98712572Y-62580499D01*
X99865371Y-62580499D01*
X99865372Y-62580499D01*
X99924983Y-62574091D01*
X100059831Y-62523796D01*
X100175046Y-62437546D01*
X100261296Y-62322331D01*
X100311591Y-62187483D01*
X100318000Y-62127873D01*
X100317999Y-60975070D01*
X100337684Y-60908032D01*
X100354313Y-60887395D01*
X104803582Y-56438127D01*
X104864919Y-56379823D01*
X104898161Y-56332062D01*
X104900962Y-56328346D01*
X104937734Y-56283251D01*
X104952758Y-56254486D01*
X104956819Y-56247783D01*
X104975353Y-56221158D01*
X104998304Y-56167673D01*
X105000295Y-56163481D01*
X105027237Y-56111906D01*
X105036163Y-56080709D01*
X105038790Y-56073329D01*
X105051587Y-56043512D01*
X105063297Y-55986522D01*
X105064417Y-55981964D01*
X105080417Y-55926051D01*
X105082879Y-55893695D01*
X105083967Y-55885937D01*
X105090500Y-55854156D01*
X105090500Y-55795996D01*
X105090679Y-55791287D01*
X105095095Y-55733297D01*
X105090996Y-55701115D01*
X105090500Y-55693284D01*
X105090500Y-49584072D01*
X105110185Y-49517033D01*
X105162989Y-49471278D01*
X105232147Y-49461334D01*
X105295703Y-49490359D01*
X105302181Y-49496391D01*
X112966332Y-57160542D01*
X112999817Y-57221865D01*
X113002179Y-57237415D01*
X113014364Y-57376687D01*
X113014366Y-57376697D01*
X113073258Y-57596488D01*
X113073261Y-57596497D01*
X113169431Y-57802732D01*
X113169432Y-57802734D01*
X113299954Y-57989141D01*
X113460858Y-58150045D01*
X113460861Y-58150047D01*
X113647266Y-58280568D01*
X113853504Y-58376739D01*
X114073308Y-58435635D01*
X114235230Y-58449801D01*
X114299998Y-58455468D01*
X114300000Y-58455468D01*
X114300002Y-58455468D01*
X114356673Y-58450509D01*
X114526692Y-58435635D01*
X114746496Y-58376739D01*
X114952734Y-58280568D01*
X115139139Y-58150047D01*
X115139141Y-58150045D01*
X115152368Y-58136819D01*
X115213691Y-58103334D01*
X115240049Y-58100500D01*
X127824928Y-58100500D01*
X127891967Y-58120185D01*
X127912609Y-58136819D01*
X135379010Y-65603220D01*
X135412495Y-65664543D01*
X135412220Y-65718494D01*
X135399406Y-65774635D01*
X135379521Y-66039995D01*
X135379521Y-66040004D01*
X135399405Y-66305357D01*
X135399405Y-66305359D01*
X135399407Y-66305367D01*
X135458623Y-66564805D01*
X135555844Y-66812521D01*
X135688899Y-67042980D01*
X135822906Y-67211018D01*
X135854820Y-67251037D01*
X135969332Y-67357288D01*
X136049890Y-67432035D01*
X136269761Y-67581940D01*
X136509514Y-67697399D01*
X136509515Y-67697399D01*
X136509518Y-67697401D01*
X136763806Y-67775839D01*
X136763807Y-67775839D01*
X136763810Y-67775840D01*
X137026937Y-67815499D01*
X137026942Y-67815499D01*
X137026945Y-67815500D01*
X137026946Y-67815500D01*
X137293054Y-67815500D01*
X137293055Y-67815500D01*
X137293062Y-67815499D01*
X137556189Y-67775840D01*
X137556190Y-67775839D01*
X137556194Y-67775839D01*
X137810482Y-67697401D01*
X138050240Y-67581940D01*
X138270110Y-67432035D01*
X138465183Y-67251033D01*
X138631101Y-67042980D01*
X138764156Y-66812521D01*
X138861377Y-66564805D01*
X138920593Y-66305367D01*
X138930737Y-66169999D01*
X138940479Y-66040004D01*
X138940479Y-66039995D01*
X138920594Y-65774642D01*
X138920594Y-65774640D01*
X138920593Y-65774635D01*
X138920593Y-65774633D01*
X138861377Y-65515195D01*
X138764156Y-65267479D01*
X138631101Y-65037020D01*
X138465183Y-64828967D01*
X138465182Y-64828966D01*
X138465179Y-64828962D01*
X138270110Y-64647965D01*
X138256362Y-64638592D01*
X138050240Y-64498060D01*
X138050236Y-64498058D01*
X138050233Y-64498056D01*
X138050232Y-64498055D01*
X137810484Y-64382600D01*
X137810486Y-64382600D01*
X137556195Y-64304161D01*
X137556189Y-64304159D01*
X137293062Y-64264500D01*
X137293055Y-64264500D01*
X137026945Y-64264500D01*
X137026937Y-64264500D01*
X136829671Y-64294233D01*
X136760446Y-64284760D01*
X136723509Y-64259299D01*
X136234215Y-63770005D01*
X149995255Y-63770005D01*
X150014215Y-64071383D01*
X150014216Y-64071390D01*
X150070805Y-64368040D01*
X150164125Y-64655247D01*
X150164127Y-64655252D01*
X150292704Y-64928491D01*
X150292707Y-64928497D01*
X150454513Y-65183464D01*
X150535312Y-65281133D01*
X151464211Y-64352235D01*
X151564894Y-64493624D01*
X151716932Y-64638592D01*
X151819222Y-64704329D01*
X150886564Y-65636986D01*
X151111474Y-65800393D01*
X151111485Y-65800400D01*
X151376109Y-65945878D01*
X151376117Y-65945882D01*
X151656889Y-66057047D01*
X151656892Y-66057048D01*
X151949399Y-66132150D01*
X152248995Y-66169999D01*
X152249007Y-66170000D01*
X152550993Y-66170000D01*
X152551004Y-66169999D01*
X152850600Y-66132150D01*
X153143107Y-66057048D01*
X153143110Y-66057047D01*
X153423882Y-65945882D01*
X153423890Y-65945878D01*
X153688514Y-65800400D01*
X153688525Y-65800393D01*
X153913433Y-65636986D01*
X153913434Y-65636986D01*
X152983306Y-64706859D01*
X152997410Y-64699589D01*
X153162540Y-64569729D01*
X153300110Y-64410965D01*
X153334665Y-64351112D01*
X154264686Y-65281133D01*
X154345483Y-65183469D01*
X154507292Y-64928497D01*
X154507295Y-64928491D01*
X154635872Y-64655252D01*
X154635874Y-64655247D01*
X154729194Y-64368040D01*
X154785783Y-64071390D01*
X154785784Y-64071383D01*
X154804745Y-63770005D01*
X154804745Y-63769994D01*
X154785784Y-63468616D01*
X154785783Y-63468609D01*
X154729194Y-63171959D01*
X154635874Y-62884752D01*
X154635872Y-62884747D01*
X154507295Y-62611508D01*
X154507292Y-62611502D01*
X154345486Y-62356535D01*
X154264685Y-62258864D01*
X153335787Y-63187762D01*
X153235106Y-63046376D01*
X153083068Y-62901408D01*
X152980777Y-62835669D01*
X153913434Y-61903012D01*
X153688530Y-61739609D01*
X153688520Y-61739602D01*
X153423890Y-61594121D01*
X153423882Y-61594117D01*
X153143110Y-61482952D01*
X153143107Y-61482951D01*
X152850600Y-61407849D01*
X152551004Y-61370000D01*
X152248995Y-61370000D01*
X151949399Y-61407849D01*
X151656892Y-61482951D01*
X151656889Y-61482952D01*
X151376117Y-61594117D01*
X151376109Y-61594121D01*
X151111479Y-61739602D01*
X151111461Y-61739614D01*
X150886565Y-61903010D01*
X150886564Y-61903012D01*
X151816693Y-62833140D01*
X151802590Y-62840411D01*
X151637460Y-62970271D01*
X151499890Y-63129035D01*
X151465334Y-63188886D01*
X150535312Y-62258864D01*
X150454516Y-62356530D01*
X150292707Y-62611502D01*
X150292704Y-62611508D01*
X150164127Y-62884747D01*
X150164125Y-62884752D01*
X150070805Y-63171959D01*
X150014216Y-63468609D01*
X150014215Y-63468616D01*
X149995255Y-63769994D01*
X149995255Y-63770005D01*
X136234215Y-63770005D01*
X133054214Y-60590004D01*
X135379521Y-60590004D01*
X135399405Y-60855357D01*
X135399405Y-60855359D01*
X135411427Y-60908032D01*
X135458623Y-61114805D01*
X135555844Y-61362521D01*
X135688899Y-61592980D01*
X135805827Y-61739602D01*
X135854820Y-61801037D01*
X135964722Y-61903010D01*
X136049890Y-61982035D01*
X136269761Y-62131940D01*
X136509514Y-62247399D01*
X136509515Y-62247399D01*
X136509518Y-62247401D01*
X136763806Y-62325839D01*
X136763807Y-62325839D01*
X136763810Y-62325840D01*
X137026937Y-62365499D01*
X137026942Y-62365499D01*
X137026945Y-62365500D01*
X137026946Y-62365500D01*
X137293054Y-62365500D01*
X137293055Y-62365500D01*
X137293062Y-62365499D01*
X137556189Y-62325840D01*
X137556190Y-62325839D01*
X137556194Y-62325839D01*
X137810482Y-62247401D01*
X138050240Y-62131940D01*
X138270110Y-61982035D01*
X138465183Y-61801033D01*
X138631101Y-61592980D01*
X138764156Y-61362521D01*
X138861377Y-61114805D01*
X138920593Y-60855367D01*
X138940004Y-60596336D01*
X138940479Y-60590004D01*
X138940479Y-60589995D01*
X138920594Y-60324640D01*
X138920593Y-60324636D01*
X138920593Y-60324633D01*
X138907779Y-60268492D01*
X138912052Y-60198754D01*
X138940987Y-60153221D01*
X139687391Y-59406819D01*
X139748714Y-59373334D01*
X139775072Y-59370500D01*
X150115586Y-59370500D01*
X150182625Y-59390185D01*
X150227784Y-59441703D01*
X150292265Y-59578732D01*
X150292271Y-59578743D01*
X150454111Y-59833763D01*
X150454114Y-59833767D01*
X150454115Y-59833768D01*
X150644742Y-60064197D01*
X150646652Y-60066505D01*
X150866836Y-60273272D01*
X150866846Y-60273280D01*
X151111193Y-60450808D01*
X151111198Y-60450810D01*
X151111205Y-60450816D01*
X151375896Y-60596332D01*
X151375901Y-60596334D01*
X151375903Y-60596335D01*
X151375904Y-60596336D01*
X151656734Y-60707524D01*
X151656737Y-60707525D01*
X151754259Y-60732564D01*
X151949302Y-60782642D01*
X152096039Y-60801179D01*
X152248963Y-60820499D01*
X152248969Y-60820499D01*
X152248973Y-60820500D01*
X152248975Y-60820500D01*
X152551025Y-60820500D01*
X152551027Y-60820500D01*
X152551032Y-60820499D01*
X152551036Y-60820499D01*
X152630591Y-60810448D01*
X152850698Y-60782642D01*
X153143262Y-60707525D01*
X153148324Y-60705521D01*
X153424095Y-60596336D01*
X153424096Y-60596335D01*
X153424094Y-60596335D01*
X153424104Y-60596332D01*
X153688795Y-60450816D01*
X153933162Y-60273274D01*
X154153349Y-60066504D01*
X154345885Y-59833768D01*
X154507733Y-59578736D01*
X154636341Y-59305430D01*
X154729681Y-59018160D01*
X154786280Y-58721457D01*
X154803015Y-58455468D01*
X154805246Y-58420005D01*
X154805246Y-58419994D01*
X154786281Y-58118553D01*
X154786280Y-58118546D01*
X154786280Y-58118543D01*
X154729681Y-57821840D01*
X154636341Y-57534570D01*
X154631324Y-57523909D01*
X154507734Y-57261267D01*
X154507733Y-57261264D01*
X154345885Y-57006232D01*
X154153349Y-56773496D01*
X153933162Y-56566726D01*
X153933159Y-56566724D01*
X153933153Y-56566719D01*
X153688806Y-56389191D01*
X153688799Y-56389186D01*
X153688795Y-56389184D01*
X153424104Y-56243668D01*
X153424101Y-56243666D01*
X153424096Y-56243664D01*
X153424095Y-56243663D01*
X153143265Y-56132475D01*
X153143262Y-56132474D01*
X152850695Y-56057357D01*
X152551036Y-56019500D01*
X152551027Y-56019500D01*
X152248973Y-56019500D01*
X152248963Y-56019500D01*
X151949304Y-56057357D01*
X151656737Y-56132474D01*
X151656734Y-56132475D01*
X151375904Y-56243663D01*
X151375903Y-56243664D01*
X151111205Y-56389184D01*
X151111193Y-56389191D01*
X150866846Y-56566719D01*
X150866836Y-56566727D01*
X150646652Y-56773494D01*
X150454111Y-57006236D01*
X150292271Y-57261256D01*
X150292265Y-57261267D01*
X150227784Y-57398297D01*
X150181429Y-57450575D01*
X150115586Y-57469500D01*
X139342045Y-57469500D01*
X139257454Y-57467355D01*
X139257451Y-57467355D01*
X139200211Y-57477615D01*
X139195546Y-57478269D01*
X139137685Y-57484154D01*
X139137672Y-57484156D01*
X139106724Y-57493866D01*
X139099099Y-57495737D01*
X139067174Y-57501460D01*
X139067171Y-57501461D01*
X139013159Y-57523034D01*
X139008724Y-57524613D01*
X138963686Y-57538745D01*
X138953232Y-57542026D01*
X138953229Y-57542027D01*
X138953225Y-57542029D01*
X138924871Y-57557766D01*
X138917777Y-57561135D01*
X138887647Y-57573171D01*
X138839087Y-57605174D01*
X138835059Y-57607615D01*
X138784209Y-57635840D01*
X138784208Y-57635841D01*
X138759594Y-57656969D01*
X138753326Y-57661696D01*
X138726243Y-57679546D01*
X138726240Y-57679549D01*
X138685120Y-57720668D01*
X138681666Y-57723869D01*
X138637529Y-57761762D01*
X138617675Y-57787410D01*
X138612484Y-57793304D01*
X137596489Y-58809299D01*
X137535166Y-58842784D01*
X137490327Y-58844233D01*
X137293062Y-58814500D01*
X137293055Y-58814500D01*
X137026945Y-58814500D01*
X137026937Y-58814500D01*
X136763810Y-58854159D01*
X136763804Y-58854161D01*
X136509514Y-58932600D01*
X136269769Y-59048055D01*
X136269760Y-59048060D01*
X136049892Y-59197963D01*
X135854820Y-59378962D01*
X135688899Y-59587020D01*
X135555844Y-59817478D01*
X135458625Y-60065189D01*
X135458620Y-60065206D01*
X135399405Y-60324640D01*
X135399405Y-60324642D01*
X135379521Y-60589995D01*
X135379521Y-60590004D01*
X133054214Y-60590004D01*
X128950627Y-56486417D01*
X128892324Y-56425082D01*
X128892320Y-56425079D01*
X128844567Y-56391841D01*
X128840833Y-56389025D01*
X128795751Y-56352266D01*
X128795747Y-56352264D01*
X128795746Y-56352263D01*
X128795745Y-56352262D01*
X128766997Y-56337246D01*
X128760277Y-56333174D01*
X128733659Y-56314647D01*
X128680209Y-56291710D01*
X128675952Y-56289688D01*
X128624409Y-56262764D01*
X128624407Y-56262763D01*
X128624406Y-56262763D01*
X128607689Y-56257979D01*
X128593221Y-56253839D01*
X128585822Y-56251205D01*
X128556011Y-56238412D01*
X128556012Y-56238412D01*
X128499038Y-56226703D01*
X128494463Y-56225580D01*
X128438556Y-56209583D01*
X128438545Y-56209582D01*
X128406208Y-56207120D01*
X128398428Y-56206029D01*
X128366657Y-56199500D01*
X128366656Y-56199500D01*
X128308497Y-56199500D01*
X128303790Y-56199321D01*
X128298850Y-56198944D01*
X128245798Y-56194904D01*
X128228176Y-56197149D01*
X128213614Y-56199003D01*
X128205785Y-56199500D01*
X115240049Y-56199500D01*
X115173010Y-56179815D01*
X115152368Y-56163181D01*
X115139141Y-56149954D01*
X114952734Y-56019432D01*
X114952732Y-56019431D01*
X114746497Y-55923261D01*
X114746488Y-55923258D01*
X114526697Y-55864366D01*
X114526687Y-55864364D01*
X114387415Y-55852179D01*
X114322346Y-55826726D01*
X114310542Y-55816332D01*
X103790627Y-45296417D01*
X103732324Y-45235082D01*
X103732320Y-45235079D01*
X103684567Y-45201841D01*
X103680833Y-45199025D01*
X103635751Y-45162266D01*
X103635747Y-45162264D01*
X103635746Y-45162263D01*
X103635745Y-45162262D01*
X103606997Y-45147246D01*
X103600277Y-45143174D01*
X103573659Y-45124647D01*
X103520209Y-45101710D01*
X103515952Y-45099688D01*
X103464409Y-45072764D01*
X103464407Y-45072763D01*
X103464406Y-45072763D01*
X103447689Y-45067979D01*
X103433221Y-45063839D01*
X103425822Y-45061205D01*
X103396011Y-45048412D01*
X103396012Y-45048412D01*
X103339038Y-45036703D01*
X103334463Y-45035580D01*
X103278556Y-45019583D01*
X103278545Y-45019582D01*
X103246208Y-45017120D01*
X103238428Y-45016029D01*
X103206657Y-45009500D01*
X103206656Y-45009500D01*
X103148497Y-45009500D01*
X103143790Y-45009321D01*
X103126938Y-45008037D01*
X103061588Y-44983321D01*
X103037090Y-44958711D01*
X102957546Y-44852454D01*
X102934709Y-44835358D01*
X102842335Y-44766206D01*
X102842328Y-44766202D01*
X102707482Y-44715908D01*
X102707483Y-44715908D01*
X102647883Y-44709501D01*
X102647881Y-44709500D01*
X102647873Y-44709500D01*
X102647865Y-44709500D01*
X101745072Y-44709500D01*
X101678033Y-44689815D01*
X101657391Y-44673181D01*
X99500627Y-42516417D01*
X99442324Y-42455082D01*
X99442320Y-42455079D01*
X99394567Y-42421841D01*
X99390833Y-42419025D01*
X99345751Y-42382266D01*
X99345747Y-42382264D01*
X99345746Y-42382263D01*
X99345745Y-42382262D01*
X99316997Y-42367246D01*
X99310277Y-42363174D01*
X99283659Y-42344647D01*
X99230209Y-42321710D01*
X99225952Y-42319688D01*
X99174409Y-42292764D01*
X99174407Y-42292763D01*
X99174406Y-42292763D01*
X99157689Y-42287979D01*
X99143221Y-42283839D01*
X99135822Y-42281205D01*
X99106011Y-42268412D01*
X99106012Y-42268412D01*
X99049038Y-42256703D01*
X99044463Y-42255580D01*
X98988556Y-42239583D01*
X98988545Y-42239582D01*
X98956208Y-42237120D01*
X98948428Y-42236029D01*
X98916657Y-42229500D01*
X98916656Y-42229500D01*
X98858497Y-42229500D01*
X98853790Y-42229321D01*
X98848850Y-42228944D01*
X98795798Y-42224904D01*
X98778176Y-42227149D01*
X98763614Y-42229003D01*
X98755785Y-42229500D01*
X93992045Y-42229500D01*
X93907454Y-42227355D01*
X93907451Y-42227355D01*
X93850211Y-42237615D01*
X93845546Y-42238269D01*
X93787685Y-42244154D01*
X93787672Y-42244156D01*
X93756724Y-42253866D01*
X93749099Y-42255737D01*
X93717174Y-42261460D01*
X93717171Y-42261461D01*
X93663159Y-42283034D01*
X93658724Y-42284613D01*
X93613686Y-42298745D01*
X93603232Y-42302026D01*
X93603229Y-42302027D01*
X93603225Y-42302029D01*
X93574871Y-42317766D01*
X93567777Y-42321135D01*
X93537647Y-42333171D01*
X93489087Y-42365174D01*
X93485059Y-42367615D01*
X93434209Y-42395840D01*
X93434208Y-42395841D01*
X93409594Y-42416969D01*
X93403326Y-42421696D01*
X93376243Y-42439546D01*
X93376240Y-42439549D01*
X93335120Y-42480668D01*
X93331666Y-42483869D01*
X93287531Y-42521760D01*
X93267674Y-42547412D01*
X93262483Y-42553305D01*
X91082609Y-44733181D01*
X91021286Y-44766666D01*
X90994928Y-44769500D01*
X76954499Y-44769500D01*
X76887460Y-44749815D01*
X76841705Y-44697011D01*
X76830499Y-44645500D01*
X76830499Y-43922129D01*
X76830498Y-43922123D01*
X76830497Y-43922116D01*
X76824091Y-43862517D01*
X76784571Y-43756559D01*
X76773797Y-43727671D01*
X76773793Y-43727664D01*
X76687547Y-43612455D01*
X76687544Y-43612452D01*
X76572335Y-43526206D01*
X76572328Y-43526202D01*
X76437482Y-43475908D01*
X76437483Y-43475908D01*
X76377883Y-43469501D01*
X76377881Y-43469500D01*
X76377873Y-43469500D01*
X76377864Y-43469500D01*
X72782129Y-43469500D01*
X72782123Y-43469501D01*
X72722516Y-43475908D01*
X72587671Y-43526202D01*
X72587664Y-43526206D01*
X72472455Y-43612452D01*
X72472452Y-43612455D01*
X72386206Y-43727664D01*
X72386202Y-43727671D01*
X72335908Y-43862517D01*
X72329501Y-43922116D01*
X72329501Y-43922123D01*
X72329500Y-43922135D01*
X72329500Y-47517870D01*
X72329501Y-47517876D01*
X72335908Y-47577483D01*
X72386202Y-47712328D01*
X72386206Y-47712335D01*
X72472452Y-47827544D01*
X72472455Y-47827547D01*
X72587664Y-47913793D01*
X72587673Y-47913798D01*
X72636506Y-47932011D01*
X72692440Y-47973881D01*
X72716858Y-48039345D01*
X72702007Y-48107618D01*
X72652603Y-48157024D01*
X72586598Y-48172018D01*
X72548592Y-48170000D01*
X71830000Y-48170000D01*
X71830000Y-49920000D01*
X71330000Y-49920000D01*
X71330000Y-48170000D01*
X71329999Y-48170000D01*
X70611409Y-48170001D01*
X70558809Y-48172794D01*
X70329012Y-48217237D01*
X70110024Y-48299879D01*
X69908158Y-48418339D01*
X69908151Y-48418344D01*
X69729213Y-48569211D01*
X69729211Y-48569213D01*
X69578344Y-48748151D01*
X69578339Y-48748158D01*
X69459879Y-48950024D01*
X69377237Y-49169012D01*
X69332794Y-49398808D01*
X69332794Y-49398809D01*
X69330000Y-49451409D01*
X69330000Y-50170000D01*
X48260500Y-50170000D01*
X48260500Y-45470000D01*
X66580000Y-45470000D01*
X68080000Y-45470000D01*
X68080000Y-45970000D01*
X66580001Y-45970000D01*
X66580001Y-46784192D01*
X66590400Y-46916332D01*
X66645377Y-47134519D01*
X66738428Y-47339374D01*
X66738431Y-47339380D01*
X66866559Y-47524323D01*
X66866569Y-47524335D01*
X67025664Y-47683430D01*
X67025676Y-47683440D01*
X67210619Y-47811568D01*
X67210625Y-47811571D01*
X67415480Y-47904622D01*
X67633667Y-47959599D01*
X67765807Y-47970000D01*
X68329999Y-47969999D01*
X68330000Y-47969998D01*
X68330000Y-47153686D01*
X68370156Y-47179493D01*
X68508111Y-47220000D01*
X68651889Y-47220000D01*
X68789844Y-47179493D01*
X68830000Y-47153686D01*
X68830000Y-47969999D01*
X69394192Y-47969999D01*
X69526332Y-47959599D01*
X69744519Y-47904622D01*
X69949374Y-47811571D01*
X69949380Y-47811568D01*
X70134323Y-47683440D01*
X70134335Y-47683430D01*
X70293430Y-47524335D01*
X70293440Y-47524323D01*
X70421568Y-47339380D01*
X70421571Y-47339374D01*
X70514622Y-47134519D01*
X70569599Y-46916332D01*
X70580000Y-46784194D01*
X70580000Y-45970000D01*
X69080000Y-45970000D01*
X69080000Y-45470000D01*
X70579999Y-45470000D01*
X70579999Y-44655808D01*
X70569599Y-44523667D01*
X70514622Y-44305480D01*
X70421571Y-44100625D01*
X70421568Y-44100619D01*
X70293440Y-43915676D01*
X70293430Y-43915664D01*
X70134335Y-43756569D01*
X70134323Y-43756559D01*
X69949380Y-43628431D01*
X69949374Y-43628428D01*
X69744519Y-43535377D01*
X69526332Y-43480400D01*
X69394194Y-43470000D01*
X68830000Y-43470000D01*
X68830000Y-44286313D01*
X68789844Y-44260507D01*
X68651889Y-44220000D01*
X68508111Y-44220000D01*
X68370156Y-44260507D01*
X68330000Y-44286313D01*
X68330000Y-43470000D01*
X68329999Y-43470000D01*
X67765808Y-43470001D01*
X67633667Y-43480400D01*
X67415480Y-43535377D01*
X67210625Y-43628428D01*
X67210619Y-43628431D01*
X67025676Y-43756559D01*
X67025664Y-43756569D01*
X66866569Y-43915664D01*
X66866559Y-43915676D01*
X66738431Y-44100619D01*
X66738428Y-44100625D01*
X66645377Y-44305480D01*
X66590400Y-44523667D01*
X66580000Y-44655806D01*
X66580000Y-45470000D01*
X48260500Y-45470000D01*
X48260500Y-33144500D01*
X48280185Y-33077461D01*
X48332989Y-33031706D01*
X48384500Y-33020500D01*
X157355500Y-33020500D01*
X157422539Y-33040185D01*
G37*
%TD.AperFunction*%
%TD*%
M02*
